<?xml version="1.0" encoding="utf-8"?>
<!-- Generator: Adobe Illustrator 27.2.0, SVG Export Plug-In . SVG Version: 6.00 Build 0)  -->
<svg version="1.1" id="Layer_1" xmlns="http://www.w3.org/2000/svg" xmlns:xlink="http://www.w3.org/1999/xlink" x="0px" y="0px"
	 viewBox="0 0 1200 700" style="enable-background:new 0 0 1200 700;" xml:space="preserve">
<style type="text/css">
	.st0{fill:#F5F5F5;}
	.st1{fill:none;stroke:#EBEBEB;stroke-miterlimit:10;}
	.st2{clip-path:url(#SVGID_00000081619637454360509560000015310459419842409130_);}
	.st3{fill:none;stroke:#EBEBEB;stroke-width:2.19;}
	.st4{fill:#EBEBEB;}
	.st5{fill:#FFFFFF;}
	.st6{clip-path:url(#SVGID_00000178894636609053751950000010134943996710624920_);}
	.st7{fill:none;stroke:#C2C2C2;}
	.st8{fill:#CCCCCC;}
	.st9{fill:none;stroke:#000000;stroke-width:2.5;stroke-miterlimit:10;}
	.st10{fill:#00D2C0;}
	.st11{fill:none;stroke:#999999;stroke-width:2.5;stroke-miterlimit:10;}
	.st12{fill:none;stroke:#000000;stroke-width:3;stroke-miterlimit:10;}
	.st13{fill:#E6E6E6;}
	.st14{fill:#009B99;}
</style>
<g>
	<path class="st0" d="M40.6,14.4h1118.5c8.3,0,15.1,6.5,15.1,14.5v639c0,8-6.8,14.5-15.1,14.5H40.6c-8.3,0-15.1-6.5-15.1-14.5v-639
		C25.4,20.9,32.2,14.4,40.6,14.4z"/>
	<rect x="1057.2" y="62.1" class="st1" width="59.1" height="59.1"/>
	<g>
		<defs>
			<rect id="SVGID_1_" x="1014.3" y="424.9" width="159.9" height="55.2"/>
		</defs>
		<clipPath id="SVGID_00000030463020364658125560000002035686025860085180_">
			<use xlink:href="#SVGID_1_"  style="overflow:visible;"/>
		</clipPath>
		<g style="clip-path:url(#SVGID_00000030463020364658125560000002035686025860085180_);">
			<g id="mask0_1501_9274">
				<line class="st3" x1="942.2" y1="482.4" x2="1005.4" y2="419.3"/>
				<line class="st3" x1="1077.6" y1="482.4" x2="1140.7" y2="419.3"/>
				<line class="st3" x1="927.2" y1="482.4" x2="990.3" y2="419.3"/>
				<line class="st3" x1="1197.9" y1="482.4" x2="1261" y2="419.3"/>
				<line class="st3" x1="1062.5" y1="482.4" x2="1125.6" y2="419.3"/>
				<line class="st3" x1="912.2" y1="482.4" x2="975.3" y2="419.3"/>
				<line class="st3" x1="1182.8" y1="482.4" x2="1245.9" y2="419.3"/>
				<line class="st3" x1="1047.5" y1="482.4" x2="1110.6" y2="419.3"/>
				<line class="st3" x1="897.1" y1="482.4" x2="960.2" y2="419.3"/>
				<line class="st3" x1="1167.8" y1="482.4" x2="1230.9" y2="419.3"/>
				<line class="st3" x1="1032.4" y1="482.4" x2="1095.6" y2="419.3"/>
				<line class="st3" x1="882.1" y1="482.4" x2="945.2" y2="419.3"/>
				<line class="st3" x1="1152.7" y1="482.4" x2="1215.9" y2="419.3"/>
				<line class="st3" x1="1017.4" y1="482.4" x2="1080.5" y2="419.3"/>
				<line class="st3" x1="867" y1="482.4" x2="930.2" y2="419.3"/>
				<line class="st3" x1="1137.7" y1="482.4" x2="1200.8" y2="419.3"/>
				<line class="st3" x1="1002.4" y1="482.4" x2="1065.5" y2="419.3"/>
				<line class="st3" x1="852" y1="482.4" x2="915.1" y2="419.3"/>
				<line class="st3" x1="1122.7" y1="482.4" x2="1185.8" y2="419.3"/>
				<line class="st3" x1="987.3" y1="482.4" x2="1050.4" y2="419.3"/>
				<line class="st3" x1="837" y1="482.4" x2="900.1" y2="419.3"/>
				<line class="st3" x1="1107.6" y1="482.4" x2="1170.8" y2="419.3"/>
				<line class="st3" x1="972.3" y1="482.4" x2="1035.4" y2="419.3"/>
				<line class="st3" x1="821.9" y1="482.4" x2="885.1" y2="419.3"/>
				<line class="st3" x1="1092.6" y1="482.4" x2="1155.7" y2="419.3"/>
				<line class="st3" x1="957.2" y1="482.4" x2="1020.4" y2="419.3"/>
			</g>
		</g>
	</g>
	<circle class="st4" cx="36" cy="448.6" r="2.4"/>
	<circle class="st4" cx="60.3" cy="448.6" r="2.4"/>
	<circle class="st4" cx="11.8" cy="448.6" r="2.4"/>
	<circle class="st4" cx="84.5" cy="448.6" r="2.4"/>
	<circle class="st4" cx="108.8" cy="448.6" r="2.4"/>
	<circle class="st4" cx="36" cy="521.3" r="2.4"/>
	<circle class="st4" cx="60.3" cy="521.3" r="2.4"/>
	<circle class="st4" cx="11.8" cy="521.3" r="2.4"/>
	<circle class="st4" cx="84.5" cy="521.3" r="2.4"/>
	<circle class="st4" cx="108.8" cy="521.4" r="2.4"/>
	<circle class="st4" cx="36" cy="472.8" r="2.4"/>
	<circle class="st4" cx="60.3" cy="472.8" r="2.4"/>
	<circle class="st4" cx="11.8" cy="472.8" r="2.4"/>
	<circle class="st4" cx="84.5" cy="472.8" r="2.4"/>
	<circle class="st4" cx="108.8" cy="472.8" r="2.4"/>
	<circle class="st4" cx="36" cy="545.6" r="2.4"/>
	<circle class="st4" cx="60.3" cy="545.6" r="2.4"/>
	<circle class="st4" cx="11.8" cy="545.6" r="2.4"/>
	<circle class="st4" cx="84.5" cy="545.6" r="2.4"/>
	<circle class="st4" cx="108.8" cy="545.6" r="2.4"/>
	<circle class="st4" cx="36" cy="497.1" r="2.4"/>
	<circle class="st4" cx="60.3" cy="497.1" r="2.4"/>
	<circle class="st4" cx="11.8" cy="497.1" r="2.4"/>
	<circle class="st4" cx="84.5" cy="497.1" r="2.4"/>
	<circle class="st4" cx="108.8" cy="497.1" r="2.4"/>
	<circle class="st5" cx="1110" cy="314.7" r="8.2"/>
	<circle class="st5" cx="1144.4" cy="314.7" r="8.2"/>
	<circle class="st5" cx="1110" cy="423.3" r="8.2"/>
	<circle class="st5" cx="1144.4" cy="423.3" r="8.2"/>
	<circle class="st5" cx="1110" cy="350.9" r="8.2"/>
	<circle class="st5" cx="1144.4" cy="350.9" r="8.2"/>
	<circle class="st5" cx="1110" cy="387.1" r="8.2"/>
	<circle class="st5" cx="1144.4" cy="387.1" r="8.2"/>
	<g>
		<defs>
			<rect id="SVGID_00000132801098949511534720000010466924183544673437_" x="25.4" y="207" width="67.9" height="202.9"/>
		</defs>
		<clipPath id="SVGID_00000060021311983464764890000018315172116824357052_">
			<use xlink:href="#SVGID_00000132801098949511534720000010466924183544673437_"  style="overflow:visible;"/>
		</clipPath>
		<g style="clip-path:url(#SVGID_00000060021311983464764890000018315172116824357052_);">
			<circle class="st4" cx="-12.5" cy="307.4" r="89"/>
		</g>
	</g>
	<path class="st7" d="M1076.9,99.3l-14.8,59.7h-4.9l14.8-59.7L1076.9,99.3z"/>
</g>
<path class="st8" d="M191,28.8h561.3c15.6,0,28.2,12.6,28.2,28.2v390.7c0,15.6-12.6,28.2-28.2,28.2H191c-15.6,0-28.2-12.6-28.2-28.2
	V57C162.9,41.4,175.5,28.8,191,28.8z"/>
<polyline class="st9" points="275.7,156.7 275.7,197 299.5,197 299.5,280.6 "/>
<path class="st10" d="M294.2,524.9h737c3.3,0,6,2.7,6,6v4.6c0,3.3-2.7,6-6,6h-737c-3.3,0-6-2.7-6-6v-4.6
	C288.2,527.6,290.9,524.9,294.2,524.9z"/>
<path class="st10" d="M294.2,610.9h737c3.3,0,6,2.7,6,6v4.6c0,3.3-2.7,6-6,6h-737c-3.3,0-6-2.7-6-6v-4.6
	C288.2,613.6,290.9,610.9,294.2,610.9z"/>
<path class="st10" d="M840.8,28.8h185.9c9.3,0,16.8,7.5,16.8,16.8v413.5c0,9.3-7.5,16.8-16.8,16.8H840.8c-9.3,0-16.8-7.5-16.8-16.8
	V45.6C824,36.3,831.6,28.8,840.8,28.8z"/>
<path class="st5" d="M856.9,89.8h153.9c7.7,0,13.9,6.2,13.9,13.9v340.4c0,7.7-6.2,13.9-13.9,13.9H856.9c-7.7,0-13.9-6.2-13.9-13.9
	V103.7C843.1,96,849.3,89.8,856.9,89.8z"/>
<g>
	<path d="M354.6,61l0.3,2.6c-1.7,0.5-3.4,0.7-5.1,0.6c-2.5,0-4.2-0.6-5.2-1.8c-1-1.2-1.5-3.4-1.5-6.4c0-3,0.5-5.1,1.5-6.4
		s2.7-1.8,5.2-1.8c1.6,0,3.2,0.2,4.8,0.5l-0.3,2.6c-1.2-0.1-2.7-0.1-4.5-0.1c-0.9-0.1-1.8,0.3-2.4,1.1c-0.5,1.3-0.7,2.7-0.6,4.1
		c-0.1,1.4,0.1,2.8,0.6,4.1c0.5,0.8,1.4,1.2,2.4,1.1C351.4,61.3,353,61.2,354.6,61z"/>
	<path d="M364.1,59.5H360c0,0.6,0.3,1.2,0.7,1.7c0.6,0.3,1.3,0.5,1.9,0.4c1.4,0,2.8-0.1,4.2-0.3l0.3,2.1c-1.6,0.6-3.3,0.9-4.9,0.9
		c-2.1,0-3.6-0.5-4.6-1.4c-0.9-0.9-1.4-2.4-1.4-4.6c0-2.2,0.4-3.8,1.3-4.7c0.9-0.9,2.4-1.3,4.5-1.3c1.4-0.1,2.9,0.2,4.1,1
		c0.9,0.7,1.4,1.8,1.3,3c0.1,0.9-0.2,1.7-0.8,2.4C366,59.3,365.1,59.5,364.1,59.5z M360,57.4h3.2c0.3,0,0.6-0.1,0.8-0.3
		c0.2-0.3,0.2-0.6,0.2-0.9c0-0.4-0.1-0.8-0.4-1.1c-0.5-0.3-1-0.4-1.5-0.3c-0.6-0.1-1.3,0.1-1.8,0.5C360.1,56,359.9,56.7,360,57.4z"
		/>
	<path d="M372.6,52.7l0.3,1.7c1.3-1.2,3.1-1.9,4.9-2c0.9-0.1,1.7,0.2,2.4,0.8c0.6,0.6,0.9,1.5,0.8,2.3V64h-3.4v-7.5
		c0-0.4,0-0.7-0.2-1c-0.2-0.2-0.5-0.3-0.9-0.3c-1.1,0.1-2.2,0.5-3.2,1V64h-3.4V52.7H372.6z"/>
	<path d="M388,54.9v5.4c0,0.3,0.1,0.6,0.3,0.9c0.3,0.2,0.6,0.3,1,0.3h1.4l0.4,2.4c-1,0.3-2.1,0.5-3.2,0.5c-0.9,0.1-1.7-0.3-2.4-0.9
		c-0.6-0.7-0.9-1.5-0.9-2.4v-6.1h-2v-2.2l2-0.1v-3.2h3.4v3.2h3.1v2.3H388z"/>
	<path d="M401.2,52.3l-0.3,3.2h-0.9c-1.2,0.1-2.4,0.4-3.5,0.8V64H393V52.7h2.6l0.3,1.7c1.2-1.2,2.9-1.9,4.6-2H401.2z"/>
	<path d="M403.1,55.2l-0.3-2.3c2-0.4,3.9-0.5,5.9-0.6c1.2-0.1,2.4,0.2,3.4,0.9c0.8,0.9,1.2,2,1.1,3.2V64h-2.7l-0.3-1.7
		c-1,1.3-2.6,2-4.2,2c-1,0-1.9-0.3-2.7-0.9c-0.7-0.6-1.1-1.5-1-2.4v-1.1c0-0.8,0.3-1.6,0.9-2.1c0.7-0.5,1.6-0.8,2.6-0.8h4v-0.5
		c0-0.4-0.1-0.9-0.4-1.2c-0.4-0.2-1-0.3-1.5-0.3C406.6,55,405,55.1,403.1,55.2z M405.5,60.1v0.4c0,0.8,0.4,1.2,1.3,1.2
		c1,0,2-0.4,2.8-1.1V59h-3.1C405.9,59,405.5,59.4,405.5,60.1z"/>
	<path d="M419.2,47.9v12.4c0,0.8,0.4,1.2,1.3,1.2h0.9l0.4,2.4c-0.9,0.4-1.8,0.5-2.7,0.5c-0.9,0-1.7-0.2-2.4-0.8
		c-0.6-0.6-0.9-1.5-0.9-2.3V47.9H419.2z"/>
	<path d="M430.6,52.7l0.3,1.7c0.5-0.6,1.2-1.1,2-1.4c0.8-0.4,1.7-0.5,2.5-0.6c2.6,0,3.9,2,3.9,6.1c0,2.2-0.3,3.7-1,4.6
		c-0.8,0.9-2,1.4-3.3,1.3c-1.4,0.1-2.7-0.3-3.8-1.1c0.1,0.8,0.1,1.6,0.1,2.4v2.7h-3.4V52.7H430.6z M431.2,56.1v5.2
		c0.8,0.2,1.7,0.4,2.6,0.5c0.6,0.1,1.2-0.2,1.6-0.6c0.4-0.8,0.5-1.8,0.4-2.7c0.1-0.9-0.1-1.8-0.4-2.7c-0.3-0.5-0.8-0.8-1.4-0.7
		C433,55.1,432,55.5,431.2,56.1L431.2,56.1z"/>
	<path d="M449.8,52.3l-0.3,3.2h-0.9c-1.2,0.1-2.4,0.4-3.5,0.8V64h-3.4V52.7h2.6l0.3,1.7c1.2-1.2,2.9-1.9,4.6-2H449.8z"/>
	<path d="M456.6,52.3c2.1,0,3.6,0.5,4.5,1.4c0.9,0.9,1.3,2.5,1.3,4.6s-0.4,3.7-1.3,4.6c-0.9,0.9-2.4,1.3-4.5,1.3
		c-2.1,0-3.6-0.4-4.5-1.3s-1.3-2.4-1.3-4.6c0-2.2,0.4-3.7,1.3-4.6S454.5,52.3,456.6,52.3z M456.6,54.9c-0.7-0.1-1.4,0.2-1.8,0.7
		c-0.4,0.9-0.5,1.8-0.5,2.8c-0.1,0.9,0.1,1.9,0.5,2.7c0.5,0.5,1.1,0.8,1.8,0.7c0.7,0.1,1.3-0.2,1.8-0.7c0.4-0.8,0.6-1.8,0.5-2.7
		c0.1-0.9-0.1-1.9-0.5-2.7C458,55.1,457.3,54.8,456.6,54.9z"/>
	<path d="M474,61.3l0.3,2.2c-1.4,0.5-2.9,0.8-4.4,0.8c-2.1,0-3.6-0.4-4.4-1.3c-0.9-0.9-1.3-2.4-1.3-4.6c0-2.2,0.4-3.7,1.3-4.6
		c0.9-0.9,2.3-1.3,4.4-1.3c1.4-0.1,2.9,0.2,4.2,0.7l-0.4,2.1c-1.7,0-2.7,0-3.2,0c-0.8-0.1-1.6,0.2-2.1,0.7c-0.5,0.8-0.7,1.6-0.6,2.5
		c-0.1,0.9,0.1,1.8,0.6,2.5c0.6,0.5,1.4,0.8,2.1,0.7C471.7,61.5,472.9,61.5,474,61.3z"/>
	<path d="M483.5,59.5h-4.1c0,0.6,0.3,1.2,0.7,1.7c0.6,0.3,1.3,0.5,1.9,0.4c1.4,0,2.8-0.1,4.2-0.3l0.3,2.1c-1.6,0.6-3.3,0.9-4.9,0.9
		c-2.1,0-3.6-0.5-4.6-1.4c-0.9-0.9-1.4-2.4-1.4-4.6c0-2.2,0.4-3.8,1.3-4.7c0.9-0.9,2.4-1.3,4.5-1.3c1.4-0.1,2.9,0.2,4.1,1
		c0.9,0.7,1.4,1.8,1.3,3c0.1,0.9-0.2,1.7-0.8,2.4C485.4,59.3,484.4,59.5,483.5,59.5z M479.3,57.4h3.2c0.3,0,0.6-0.1,0.8-0.3
		c0.2-0.3,0.2-0.6,0.2-0.9c0-0.4-0.1-0.8-0.4-1.1c-0.5-0.3-1-0.4-1.5-0.3c-0.6-0.1-1.3,0.1-1.8,0.5C479.4,56,479.3,56.7,479.3,57.4z
		"/>
	<path d="M494.2,59.8l-2.8-0.8c-0.8-0.2-1.6-0.6-2.2-1.3c-0.4-0.6-0.6-1.4-0.6-2.2c-0.1-1,0.3-1.9,1.1-2.5c1.2-0.6,2.4-0.8,3.7-0.7
		c1.8,0,3.5,0.2,5.2,0.4l-0.2,2.2c-1.9,0-3.4,0-4.4,0c-0.5,0-0.9,0-1.1,0c-0.2,0-0.4,0-0.6,0.1c-0.2,0-0.3,0.1-0.4,0.2
		c-0.1,0.1-0.1,0.3-0.1,0.4c0,0.1,0,0.1,0,0.2c0,0.1,0,0.1,0.1,0.2c0,0,0.1,0.1,0.1,0.1c0,0,0.1,0.1,0.1,0.1c0,0,0.1,0.1,0.1,0.1
		c0,0,0.1,0,0.2,0.1s0.2,0.1,0.2,0.1c0.1,0,0.2,0,0.3,0.1s0.3,0.1,0.3,0.1l2.9,0.8c0.8,0.2,1.6,0.6,2.2,1.2c0.5,0.6,0.7,1.4,0.6,2.2
		c0.1,1.1-0.3,2.1-1.2,2.7c-1.3,0.6-2.6,0.8-4,0.7c-1.7,0-3.4-0.1-5.1-0.4l0.2-2.2c0.6,0,1.9,0,3.9,0c0.8,0,1.5,0,2.3-0.1
		c0.3-0.1,0.6-0.4,0.5-0.7c0-0.1,0-0.1,0-0.2c0-0.1,0-0.1-0.1-0.2c0,0-0.1-0.1-0.1-0.1c0,0-0.1-0.1-0.1-0.1c-0.1,0-0.1-0.1-0.2-0.1
		c-0.1,0-0.1-0.1-0.2-0.1c-0.1,0-0.2-0.1-0.3-0.1s-0.2,0-0.3-0.1C494.4,59.9,494.3,59.8,494.2,59.8z"/>
	<path d="M506.3,59.8l-2.8-0.8c-0.8-0.2-1.6-0.6-2.2-1.3c-0.4-0.6-0.6-1.4-0.6-2.2c-0.1-1,0.3-1.9,1.1-2.5c1.2-0.6,2.4-0.8,3.7-0.7
		c1.8,0,3.5,0.2,5.2,0.4l-0.2,2.2c-1.9,0-3.4,0-4.4,0c-0.5,0-0.9,0-1.1,0c-0.2,0-0.4,0-0.6,0.1c-0.2,0-0.3,0.1-0.4,0.2
		c-0.1,0.1-0.1,0.3-0.1,0.4c0,0.1,0,0.1,0,0.2c0,0.1,0,0.1,0.1,0.2c0,0,0.1,0.1,0.1,0.1c0,0,0.1,0.1,0.1,0.1c0,0,0.1,0.1,0.1,0.1
		c0,0,0.1,0,0.2,0.1s0.2,0.1,0.2,0.1c0.1,0,0.2,0,0.3,0.1s0.3,0.1,0.3,0.1l2.9,0.8c0.8,0.2,1.6,0.6,2.2,1.2c0.5,0.6,0.7,1.4,0.6,2.2
		c0.1,1.1-0.3,2.1-1.2,2.7c-1.3,0.6-2.6,0.8-4,0.7c-1.7,0-3.4-0.1-5.1-0.4l0.2-2.2c0.6,0,1.9,0,3.9,0c0.8,0,1.5,0,2.3-0.1
		c0.3-0.1,0.6-0.4,0.5-0.7c0-0.1,0-0.1,0-0.2c0-0.1,0-0.1-0.1-0.2c0,0-0.1-0.1-0.1-0.1c0,0-0.1-0.1-0.1-0.1c-0.1,0-0.1-0.1-0.2-0.1
		c-0.1,0-0.1-0.1-0.2-0.1c-0.1,0-0.2-0.1-0.3-0.1s-0.2,0-0.3-0.1C506.5,59.9,506.4,59.8,506.3,59.8z"/>
	<path d="M514.4,47.6h1.5c0.5-0.1,0.9,0.3,1,0.7c0,0.1,0,0.2,0,0.2v1.2c0.1,0.5-0.3,0.9-0.7,1c-0.1,0-0.2,0-0.2,0h-1.5
		c-0.5,0.1-0.9-0.3-1-0.7c0-0.1,0-0.2,0-0.2v-1.2c-0.1-0.5,0.3-0.9,0.7-1C514.2,47.6,514.3,47.6,514.4,47.6z M516.8,64h-3.4V52.7
		h3.4V64z"/>
	<path d="M522.5,52.7l0.3,1.7c1.3-1.2,3.1-1.9,4.9-2c0.9-0.1,1.7,0.2,2.4,0.8c0.6,0.6,0.9,1.5,0.8,2.3V64h-3.4v-7.5
		c0-0.4,0-0.7-0.2-1c-0.2-0.2-0.5-0.3-0.9-0.3c-1.1,0.1-2.2,0.5-3.2,1V64h-3.4V52.7H522.5z"/>
	<path d="M544.9,54.2l-1.4,0.2c0.2,0.5,0.3,1.1,0.3,1.6c0.1,1.1-0.3,2.1-1.2,2.8c-1.3,0.7-2.7,1-4.2,0.8c-0.7,0-1.3,0-2-0.1
		c-0.2,0.2-0.2,0.6-0.1,0.8c0.1,0.3,0.4,0.5,0.8,0.5l4.1,0.5c0.9,0,1.8,0.4,2.5,1c0.6,0.7,0.8,1.5,0.8,2.4c0.1,1.1-0.4,2.3-1.3,2.9
		c-1.5,0.6-3.1,0.9-4.7,0.8c-2.3,0-3.9-0.2-4.7-0.7c-0.9-0.6-1.4-1.6-1.2-2.7c0-0.5,0.1-1,0.4-1.4c0.4-0.5,0.8-0.8,1.4-1
		c-0.9-0.9-0.9-2.4,0-3.2c0.1-0.1,0.2-0.2,0.3-0.3c-1.1-0.6-1.8-1.8-1.7-3.1c-0.1-1.1,0.3-2.2,1.2-2.8c1.3-0.7,2.7-0.9,4.2-0.8
		c1,0,2,0.1,3,0.3h3.7L544.9,54.2z M539.5,63.6l-2.9-0.3c-0.4,0.3-0.7,0.8-0.7,1.3c0,0.6,0.2,0.9,0.5,1.1c1.5,0.3,3,0.3,4.4,0
		c0.4-0.2,0.6-0.6,0.5-1c0-0.4-0.1-0.7-0.3-0.8C540.5,63.7,540,63.6,539.5,63.6z M538.5,57.4c0.6,0.1,1.2-0.1,1.7-0.3
		c0.3-0.3,0.5-0.7,0.5-1.2c0.1-0.4-0.1-0.9-0.5-1.1c-0.5-0.2-1.1-0.3-1.7-0.3c-0.6,0-1.2,0.1-1.7,0.3c-0.3,0.3-0.5,0.7-0.5,1.1
		c0,0.4,0.1,0.9,0.5,1.2C537.3,57.4,537.9,57.5,538.5,57.4L538.5,57.4z"/>
	<path d="M562.6,52.7V64h-2.7l-0.3-1.6c-1.3,1.1-3,1.8-4.7,1.9c-2.1,0-3.2-1.1-3.2-3.2v-8.5h3.4v7.5c-0.1,0.4,0,0.7,0.3,1
		c0.3,0.2,0.6,0.3,1,0.3c1-0.1,2-0.4,2.8-0.9v-7.8H562.6z"/>
	<path d="M568.1,52.7l0.3,1.7c1.3-1.2,3.1-1.9,4.9-2c0.9-0.1,1.7,0.2,2.4,0.8c0.6,0.6,0.9,1.5,0.8,2.3V64H573v-7.5
		c0-0.4,0-0.7-0.2-1c-0.2-0.2-0.5-0.3-0.9-0.3c-1.1,0.1-2.2,0.5-3.2,1V64h-3.4V52.7H568.1z"/>
	<path d="M580.2,47.6h1.5c0.5-0.1,0.9,0.3,1,0.7c0,0.1,0,0.2,0,0.2v1.2c0.1,0.5-0.3,0.9-0.7,1c-0.1,0-0.2,0-0.2,0h-1.5
		c-0.5,0.1-0.9-0.3-1-0.7c0-0.1,0-0.2,0-0.2v-1.2c-0.1-0.5,0.3-0.9,0.7-1C580,47.6,580.1,47.6,580.2,47.6z M582.6,64h-3.4V52.7h3.4
		V64z"/>
	<path d="M589.9,54.9v5.4c0,0.3,0.1,0.6,0.3,0.9c0.3,0.2,0.6,0.3,1,0.3h1.4l0.4,2.4c-1,0.3-2.1,0.5-3.2,0.5
		c-0.9,0.1-1.7-0.3-2.4-0.9c-0.6-0.7-0.9-1.5-0.9-2.4v-6.1h-2v-2.2l2-0.1v-3.2h3.4v3.2h3.2v2.3H589.9z"/>
</g>
<g>
	<path d="M355,101.5v8h-2.2l-0.3-1.4c-1,1.1-2.5,1.7-4,1.6c-1.3,0.1-2.6-0.6-3.4-1.7c-0.8-1.7-1.2-3.6-1-5.5c0-2.7,0.5-4.6,1.4-5.6
		s2.5-1.5,4.8-1.5c1.4,0,2.9,0.1,4.2,0.5l-0.2,2.2c-1.5-0.1-2.8-0.1-3.9-0.1c-0.5,0-1,0-1.5,0.2c-0.4,0.1-0.7,0.3-0.9,0.7
		c-0.3,0.4-0.5,0.9-0.5,1.4c-0.1,0.8-0.2,1.6-0.1,2.4c-0.1,1.2,0.1,2.4,0.5,3.5c0.3,0.7,1,1,1.8,1c0.9,0,1.7-0.3,2.5-0.7v-4.9
		L355,101.5z"/>
	<path d="M363.5,105.6H360c0,0.6,0.2,1.1,0.6,1.4c0.5,0.3,1.1,0.4,1.7,0.4c1.2,0,2.5-0.1,3.7-0.2l0.3,1.8c-1.4,0.6-2.8,0.8-4.3,0.7
		c-1.4,0.1-2.9-0.3-4-1.2c-0.9-1.1-1.3-2.5-1.2-4c0-1.9,0.4-3.3,1.1-4.1c1.1-0.9,2.5-1.3,3.9-1.2c1.2-0.1,2.5,0.2,3.6,0.8
		c0.8,0.6,1.2,1.6,1.1,2.6c0.1,0.8-0.2,1.5-0.7,2.1C365.2,105.4,364.3,105.6,363.5,105.6z M359.9,103.8h2.8c0.3,0,0.5-0.1,0.7-0.3
		c0.1-0.2,0.2-0.5,0.2-0.8c0-0.4-0.1-0.7-0.4-1c-0.4-0.2-0.9-0.3-1.3-0.3c-0.6-0.1-1.1,0.1-1.6,0.4
		C360,102.5,359.9,103.1,359.9,103.8L359.9,103.8z"/>
	<path d="M370.8,99.6l0.2,1.5c1.2-1.1,2.7-1.7,4.2-1.7c0.7-0.1,1.5,0.2,2.1,0.7c0.5,0.6,0.8,1.3,0.7,2v7.4h-2.9V103
		c0-0.3,0-0.6-0.2-0.9c-0.2-0.2-0.5-0.3-0.8-0.2c-1,0.1-1.9,0.4-2.7,0.9v6.7h-3v-9.9L370.8,99.6z"/>
	<path d="M386.7,105.6h-3.6c0,0.6,0.2,1.1,0.6,1.4c0.5,0.3,1.1,0.4,1.7,0.4c1.2,0,2.5-0.1,3.7-0.2l0.3,1.8c-1.4,0.6-2.8,0.8-4.3,0.7
		c-1.4,0.1-2.9-0.3-4-1.2c-0.9-1.1-1.3-2.5-1.2-4c0-1.9,0.4-3.3,1.1-4.1c1.1-0.9,2.5-1.3,3.9-1.2c1.2-0.1,2.5,0.2,3.6,0.8
		c0.8,0.6,1.2,1.6,1.1,2.6c0.1,0.8-0.2,1.5-0.7,2.1C388.3,105.4,387.5,105.6,386.7,105.6z M383.1,103.8h2.8c0.3,0,0.5-0.1,0.7-0.3
		c0.1-0.2,0.2-0.5,0.2-0.8c0-0.4-0.1-0.7-0.4-1c-0.4-0.2-0.9-0.3-1.3-0.3c-0.6-0.1-1.1,0.1-1.6,0.4
		C383.2,102.5,383,103.1,383.1,103.8z"/>
	<path d="M398.7,99.4l-0.3,2.7h-0.8c-1,0.1-2.1,0.3-3,0.7v6.7h-3v-9.9h2.3l0.3,1.4c1.1-1,2.5-1.6,4-1.7L398.7,99.4z"/>
	<path d="M400.3,101.8l-0.3-2c1.7-0.3,3.4-0.5,5.1-0.5c1-0.1,2.1,0.2,2.9,0.8c0.7,0.8,1,1.8,0.9,2.8v6.5h-2.3l-0.3-1.5
		c-0.9,1.1-2.2,1.8-3.6,1.7c-0.8,0-1.7-0.2-2.3-0.8c-0.6-0.5-0.9-1.3-0.9-2.1v-1c0-0.7,0.3-1.4,0.8-1.8c0.6-0.5,1.4-0.7,2.2-0.7h3.5
		V103c0-0.4-0.1-0.7-0.4-1c-0.4-0.2-0.8-0.3-1.3-0.3C403.4,101.7,402,101.7,400.3,101.8z M402.5,106.1v0.4c0,0.7,0.4,1,1.2,1
		c0.9,0,1.8-0.4,2.5-1v-1.4h-2.7c-0.5-0.1-0.9,0.3-1,0.7C402.5,106,402.5,106,402.5,106.1L402.5,106.1z"/>
	<path d="M414.4,95.5v10.8c0,0.7,0.4,1,1.1,1h0.8l0.3,2.1c-0.7,0.3-1.6,0.4-2.4,0.4c-0.8,0-1.5-0.2-2.1-0.7c-0.5-0.5-0.8-1.3-0.8-2
		V95.5L414.4,95.5z"/>
	<path d="M423.5,105.4h-6v-1.9h6V105.4z"/>
	<path d="M428.3,99.6l0.2,1.4c0.5-0.5,1.1-1,1.7-1.2c0.7-0.3,1.4-0.5,2.2-0.5c2.3,0,3.4,1.8,3.4,5.3c0.1,1.4-0.2,2.8-0.9,4
		c-0.7,0.8-1.8,1.2-2.9,1.1c-1.2,0-2.3-0.3-3.3-1c0.1,0.7,0.1,1.4,0.1,2.1v2.4h-2.9V99.6L428.3,99.6z M428.9,102.6v4.5
		c0.7,0.2,1.5,0.3,2.2,0.4c0.5,0.1,1-0.2,1.4-0.6c0.3-0.7,0.4-1.5,0.4-2.3c0.1-0.8-0.1-1.6-0.3-2.4c-0.2-0.4-0.7-0.7-1.2-0.6
		C430.4,101.8,429.6,102.1,428.9,102.6z"/>
	<path d="M447.3,99.6v9.9h-2.3l-0.2-1.4c-1.1,1-2.6,1.6-4.1,1.6c-1.3,0.2-2.6-0.7-2.8-2.1c0-0.2,0-0.5,0-0.7v-7.4h3v6.5
		c0,0.3,0,0.6,0.2,0.9c0.2,0.2,0.5,0.3,0.8,0.3c0.9-0.1,1.7-0.4,2.5-0.8v-6.8L447.3,99.6z"/>
	<path d="M456.8,99.4l-0.3,2.7h-0.8c-1,0.1-2.1,0.3-3,0.7v6.7h-3v-9.9h2.3l0.3,1.4c1.1-1,2.5-1.6,4-1.7L456.8,99.4z"/>
	<path d="M460.6,99.6l0.2,1.4c0.5-0.5,1.1-1,1.7-1.2c0.7-0.3,1.4-0.5,2.2-0.5c2.3,0,3.4,1.8,3.4,5.3c0.1,1.4-0.2,2.8-0.9,4
		c-0.7,0.8-1.8,1.2-2.9,1.1c-1.2,0-2.3-0.3-3.3-1c0.1,0.7,0.1,1.4,0.1,2.1v2.4h-2.9V99.6L460.6,99.6z M461.1,102.6v4.5
		c0.7,0.2,1.5,0.3,2.2,0.4c0.5,0.1,1-0.2,1.4-0.6c0.3-0.7,0.4-1.5,0.4-2.3c0.1-0.8-0.1-1.6-0.3-2.4c-0.2-0.4-0.7-0.7-1.2-0.6
		C462.7,101.8,461.9,102.1,461.1,102.6z"/>
	<path d="M474.9,99.4c1.4-0.1,2.8,0.3,3.9,1.2c0.8,0.8,1.2,2.1,1.1,4c0,1.9-0.4,3.2-1.1,4c-1.1,0.9-2.5,1.3-3.9,1.2
		c-1.9,0-3.2-0.4-3.9-1.2s-1.1-2.1-1.1-4c0-1.9,0.4-3.3,1.1-4C471.7,99.8,473,99.4,474.9,99.4z M474.9,101.6
		c-0.6-0.1-1.2,0.1-1.6,0.6c-0.3,0.8-0.5,1.6-0.4,2.4c-0.1,0.8,0.1,1.6,0.4,2.4c0.4,0.5,1,0.7,1.6,0.6c0.6,0.1,1.2-0.2,1.5-0.6
		c0.3-0.7,0.5-1.6,0.4-2.4c0.1-0.8-0.1-1.6-0.4-2.4C476,101.7,475.5,101.5,474.9,101.6L474.9,101.6z"/>
	<path d="M486.3,105.8l-2.5-0.7c-0.7-0.2-1.4-0.5-1.9-1.1c-0.4-0.6-0.6-1.2-0.5-1.9c-0.1-0.8,0.3-1.7,1-2.2c1-0.5,2.1-0.7,3.2-0.6
		c1.5,0,3.1,0.1,4.6,0.4l-0.2,1.9c-1.7,0-2.9,0-3.8,0c-0.5,0-0.8,0-1,0c-0.2,0-0.4,0-0.5,0.1c-0.2,0-0.3,0.1-0.3,0.2
		c0,0.1-0.1,0.3-0.1,0.4c0,0.1,0,0.1,0,0.2c0,0.1,0,0.1,0,0.1c0,0,0,0.1,0.1,0.1c0,0,0.1,0.1,0.1,0.1c0,0,0.1,0.1,0.1,0.1
		c0,0,0.1,0,0.2,0.1c0.1,0,0.1,0.1,0.2,0.1c0,0,0.1,0,0.3,0.1c0.1,0,0.2,0.1,0.3,0.1l2.5,0.7c0.7,0.2,1.4,0.5,1.9,1
		c0.4,0.5,0.6,1.2,0.6,1.9c0.1,0.9-0.3,1.8-1,2.4c-1.1,0.5-2.3,0.7-3.5,0.6c-1.5,0-3-0.1-4.4-0.3l0.2-1.9c0.5,0,1.6,0,3.4,0
		c0.7,0,1.3,0,2-0.1c0.3-0.1,0.5-0.3,0.5-0.6c0-0.1,0-0.1,0-0.2c0-0.1,0-0.1,0-0.2c0,0,0-0.1-0.1-0.1c0,0-0.1-0.1-0.1-0.1
		c-0.1,0-0.1-0.1-0.1-0.1c-0.1,0-0.1-0.1-0.2-0.1c-0.1,0-0.2-0.1-0.2-0.1s-0.1,0-0.3-0.1C486.5,105.9,486.4,105.9,486.3,105.8z"/>
	<path d="M498.8,105.6h-3.6c0,0.6,0.2,1.1,0.6,1.4c0.5,0.3,1.1,0.4,1.7,0.4c1.2,0,2.5-0.1,3.7-0.2l0.3,1.8c-1.4,0.6-2.8,0.8-4.3,0.7
		c-1.4,0.1-2.9-0.3-4-1.2c-0.9-1.1-1.3-2.5-1.2-4c0-1.9,0.4-3.3,1.1-4.1c1.1-0.9,2.5-1.3,3.9-1.2c1.2-0.1,2.5,0.2,3.6,0.8
		c0.8,0.6,1.2,1.6,1.1,2.6c0.1,0.8-0.2,1.5-0.7,2.1C500.4,105.4,499.6,105.6,498.8,105.6z M495.1,103.8h2.8c0.3,0,0.5-0.1,0.7-0.3
		c0.1-0.2,0.2-0.5,0.2-0.8c0-0.4-0.1-0.7-0.4-1c-0.4-0.2-0.9-0.3-1.3-0.3c-0.6-0.1-1.1,0.1-1.6,0.4
		C495.3,102.5,495.1,103.1,495.1,103.8z"/>
	<path d="M515.1,99.4l-0.3,2.7H514c-1,0.1-2.1,0.3-3,0.7v6.7h-3v-9.9h2.3l0.3,1.4c1.1-1,2.5-1.6,4-1.7L515.1,99.4z"/>
	<path d="M522.7,105.6h-3.6c0,0.6,0.2,1.1,0.6,1.4c0.5,0.3,1.1,0.4,1.7,0.4c1.2,0,2.5-0.1,3.7-0.2l0.3,1.8c-1.4,0.6-2.8,0.8-4.3,0.7
		c-1.4,0.1-2.9-0.3-4-1.2c-0.9-1.1-1.3-2.5-1.2-4c0-1.9,0.4-3.3,1.2-4.1c1.1-0.9,2.5-1.3,3.9-1.2c1.2-0.1,2.5,0.2,3.6,0.8
		c0.8,0.6,1.2,1.6,1.1,2.6c0.1,0.8-0.2,1.5-0.7,2.1C524.3,105.4,523.5,105.6,522.7,105.6z M519,103.8h2.8c0.3,0,0.5-0.1,0.7-0.3
		c0.1-0.2,0.2-0.5,0.2-0.8c0-0.4-0.1-0.7-0.4-1c-0.4-0.2-0.9-0.3-1.3-0.3c-0.6-0.1-1.1,0.1-1.6,0.4C519.2,102.5,519,103.1,519,103.8
		z"/>
	<path d="M537.5,100.9l-1.2,0.2c0.2,0.5,0.3,0.9,0.2,1.4c0.1,0.9-0.3,1.9-1,2.4c-1.1,0.6-2.4,0.8-3.6,0.7c-0.6,0-1.1,0-1.7-0.1
		c-0.2,0.2-0.2,0.5-0.1,0.7c0.1,0.3,0.4,0.5,0.7,0.5l3.6,0.4c0.8,0,1.6,0.3,2.2,0.9c0.5,0.6,0.7,1.3,0.7,2.1c0.1,1-0.3,2-1.1,2.5
		c-1.3,0.5-2.7,0.8-4.1,0.7c-1.4,0.1-2.8-0.1-4.1-0.6c-0.8-0.5-1.2-1.4-1.1-2.3c0-0.4,0.1-0.9,0.3-1.2c0.3-0.4,0.7-0.7,1.2-0.9
		c-0.8-0.8-0.8-2,0-2.8c0.1-0.1,0.2-0.2,0.3-0.2c-1-0.5-1.6-1.6-1.5-2.7c-0.1-0.9,0.3-1.9,1-2.5c1.1-0.6,2.4-0.8,3.6-0.7
		c0.9,0,1.7,0.1,2.6,0.3h3.2L537.5,100.9z M532.8,109.1l-2.5-0.3c-0.4,0.3-0.6,0.7-0.6,1.1c0,0.5,0.1,0.8,0.4,0.9
		c1.3,0.3,2.6,0.3,3.8,0c0.3-0.2,0.5-0.5,0.5-0.9c0-0.3-0.1-0.6-0.3-0.7C533.7,109.2,533.2,109.1,532.8,109.1L532.8,109.1z
		 M531.9,103.8c0.5,0,1-0.1,1.5-0.3c0.3-0.2,0.5-0.6,0.4-1c0-0.4-0.1-0.8-0.4-1c-0.5-0.2-1-0.3-1.5-0.3c-0.5,0-1,0-1.5,0.3
		c-0.3,0.2-0.5,0.6-0.4,1c0,0.4,0.1,0.8,0.4,1C530.9,103.7,531.4,103.8,531.9,103.8L531.9,103.8z"/>
	<path d="M540,95.3h1.3c0.4-0.1,0.8,0.2,0.9,0.6c0,0.1,0,0.1,0,0.2v1.1c0.1,0.4-0.2,0.8-0.6,0.9c-0.1,0-0.1,0-0.2,0H540
		c-0.4,0.1-0.8-0.2-0.9-0.6c0-0.1,0-0.1,0-0.2v-1.1c-0.1-0.4,0.2-0.8,0.6-0.9C539.9,95.3,540,95.3,540,95.3z M542.2,109.5h-2.9v-9.9
		h2.9V109.5z"/>
	<path d="M549.1,105.8l-2.5-0.7c-0.7-0.2-1.4-0.5-1.9-1.1c-0.4-0.6-0.6-1.2-0.5-1.9c-0.1-0.8,0.3-1.7,1-2.2c1-0.5,2.1-0.7,3.2-0.6
		c1.5,0,3.1,0.1,4.6,0.4l-0.2,1.9c-1.7,0-2.9,0-3.8,0c-0.5,0-0.8,0-1,0c-0.2,0-0.4,0-0.5,0.1c-0.2,0-0.3,0.1-0.3,0.2
		c0,0.1-0.1,0.3-0.1,0.4c0,0.1,0,0.1,0,0.2c0,0.1,0,0.1,0,0.1c0,0,0,0.1,0.1,0.1c0,0,0.1,0.1,0.1,0.1c0,0,0.1,0.1,0.1,0.1
		c0,0,0.1,0,0.2,0.1c0.1,0,0.1,0.1,0.2,0.1c0,0,0.1,0,0.3,0.1c0.1,0,0.2,0.1,0.3,0.1l2.5,0.7c0.7,0.2,1.4,0.5,1.9,1
		c0.4,0.5,0.6,1.2,0.6,1.9c0.1,0.9-0.3,1.8-1,2.4c-1.1,0.5-2.3,0.7-3.5,0.6c-1.5,0-3-0.1-4.4-0.3l0.2-1.9c0.5,0,1.6,0,3.4,0
		c0.7,0,1.3,0,2-0.1c0.3-0.1,0.5-0.3,0.5-0.6c0-0.1,0-0.1,0-0.2c0-0.1,0-0.1,0-0.2c0,0,0-0.1-0.1-0.1c0,0-0.1-0.1-0.1-0.1
		c-0.1,0-0.1-0.1-0.1-0.1c-0.1,0-0.1-0.1-0.2-0.1c-0.1,0-0.2-0.1-0.2-0.1s-0.1,0-0.3-0.1C549.3,105.9,549.2,105.9,549.1,105.8z"/>
	<path d="M559.1,101.6v4.7c0,0.3,0.1,0.6,0.2,0.8c0.2,0.2,0.5,0.3,0.8,0.2h1.3l0.3,2.1c-0.9,0.3-1.8,0.4-2.8,0.4
		c-0.8,0-1.5-0.2-2.1-0.8c-0.5-0.6-0.8-1.3-0.7-2.1v-5.3h-1.7v-1.9l1.7-0.1v-2.8h2.9v2.8h2.7v2L559.1,101.6z"/>
	<path d="M569.7,105.6h-3.6c0,0.6,0.2,1.1,0.6,1.4c0.5,0.3,1.1,0.4,1.7,0.4c1.2,0,2.5-0.1,3.7-0.2l0.3,1.8c-1.4,0.6-2.8,0.8-4.3,0.7
		c-1.4,0.1-2.9-0.3-4-1.2c-0.9-1.1-1.3-2.5-1.2-4c0-1.9,0.4-3.3,1.2-4.1c1.1-0.9,2.5-1.3,3.9-1.2c1.2-0.1,2.5,0.2,3.6,0.8
		c0.8,0.6,1.2,1.6,1.1,2.6c0.1,0.8-0.2,1.5-0.7,2.1C571.4,105.4,570.6,105.6,569.7,105.6z M566.1,103.8h2.8c0.3,0,0.5-0.1,0.7-0.3
		c0.1-0.2,0.2-0.5,0.2-0.8c0-0.4-0.1-0.7-0.4-1c-0.4-0.2-0.9-0.3-1.3-0.3c-0.6-0.1-1.1,0.1-1.6,0.4
		C566.2,102.5,566.1,103.1,566.1,103.8L566.1,103.8z"/>
	<path d="M581.7,99.4l-0.3,2.7h-0.8c-1,0.1-2.1,0.3-3,0.7v6.7h-3v-9.9h2.3l0.3,1.4c1.1-1,2.5-1.6,4-1.7L581.7,99.4z"/>
	<path d="M587.5,105.8l-2.5-0.7c-0.7-0.2-1.4-0.5-1.9-1.1c-0.4-0.6-0.6-1.2-0.5-1.9c-0.1-0.8,0.3-1.7,1-2.2c1-0.5,2.1-0.7,3.2-0.6
		c1.5,0,3.1,0.1,4.6,0.4l-0.2,1.9c-1.7,0-2.9,0-3.8,0c-0.5,0-0.8,0-1,0c-0.2,0-0.4,0-0.5,0.1c-0.2,0-0.3,0.1-0.3,0.2
		c0,0.1-0.1,0.3-0.1,0.4c0,0.1,0,0.1,0,0.2c0,0.1,0,0.1,0,0.1c0,0,0,0.1,0.1,0.1c0,0,0.1,0.1,0.1,0.1c0,0,0.1,0.1,0.1,0.1
		c0,0,0.1,0,0.2,0.1c0.1,0,0.1,0.1,0.2,0.1c0,0,0.1,0,0.3,0.1c0.1,0,0.2,0.1,0.3,0.1l2.5,0.7c0.7,0.2,1.4,0.5,1.9,1
		c0.4,0.5,0.6,1.2,0.6,1.9c0.1,0.9-0.3,1.8-1,2.4c-1.1,0.5-2.3,0.7-3.5,0.6c-1.5,0-3-0.1-4.4-0.3l0.2-1.9c0.5,0,1.6,0,3.4,0
		c0.7,0,1.3,0,2-0.1c0.3-0.1,0.5-0.3,0.5-0.6c0-0.1,0-0.1,0-0.2c0-0.1,0-0.1,0-0.2c0,0,0-0.1-0.1-0.1c0,0-0.1-0.1-0.1-0.1
		c-0.1,0-0.1-0.1-0.1-0.1c-0.1,0-0.1-0.1-0.2-0.1c-0.1,0-0.2-0.1-0.2-0.1s-0.1,0-0.3-0.1C587.7,105.9,587.6,105.9,587.5,105.8z"/>
</g>
<g>
	<path d="M887,42.3h2.7c0.5-0.1,1,0.3,1,0.8c0,0.1,0,0.1,0,0.2l0.5,11.4h-2.6l-0.4-10.3h-0.3l-1.9,7.7c-0.1,0.5-0.6,0.9-1.1,0.9H883
		c-0.6,0.1-1-0.3-1.1-0.9l-1.9-7.7h-0.3l-0.4,10.3h-2.6l0.5-11.4c-0.1-0.5,0.3-1,0.8-1c0.1,0,0.1,0,0.2,0h2.7c0.5,0,1,0.3,1.1,0.9
		l1.5,6.2c0.1,0.4,0.2,1,0.3,1.8h0.2c0-0.1,0.1-0.3,0.1-0.7s0.1-0.8,0.2-1l1.5-6.2C885.9,42.7,886.4,42.3,887,42.3z"/>
	<path d="M893.5,47.9l-0.3-1.8c1.5-0.3,3.1-0.4,4.6-0.4c0.9-0.1,1.9,0.2,2.7,0.7c0.6,0.7,0.9,1.6,0.8,2.5v5.9h-2.1l-0.3-1.4
		c-0.8,1-2,1.6-3.3,1.6c-0.8,0-1.5-0.2-2.1-0.7c-0.5-0.5-0.9-1.2-0.8-1.9v-0.9c0-0.6,0.2-1.2,0.7-1.7c0.6-0.4,1.3-0.6,2-0.6h3.2
		v-0.4c0-0.3-0.1-0.7-0.3-0.9c-0.3-0.2-0.7-0.3-1.1-0.2C896.2,47.7,895,47.8,893.5,47.9z M895.4,51.7v0.3c0,0.6,0.3,0.9,1,0.9
		c0.8,0,1.6-0.3,2.2-0.9v-1.2h-2.4c-0.4-0.1-0.8,0.2-0.9,0.7C895.4,51.6,895.4,51.7,895.4,51.7L895.4,51.7z"/>
	<path d="M904.3,42h1.2c0.4-0.1,0.7,0.2,0.8,0.6c0,0.1,0,0.1,0,0.2v1c0.1,0.4-0.2,0.7-0.6,0.8c-0.1,0-0.1,0-0.2,0h-1.2
		c-0.4,0.1-0.7-0.2-0.8-0.6c0-0.1,0-0.1,0-0.2v-1c-0.1-0.4,0.2-0.7,0.6-0.8C904.1,42,904.2,42,904.3,42z M906.2,54.8h-2.7v-8.9h2.7
		V54.8z"/>
	<path d="M910.6,45.9l0.2,1.3c1-1,2.4-1.5,3.8-1.6c0.7,0,1.3,0.2,1.8,0.6c0.5,0.5,0.7,1.2,0.6,1.8v6.7h-2.7v-5.8
		c0-0.3,0-0.6-0.2-0.8c-0.2-0.2-0.4-0.3-0.7-0.2c-0.9,0.1-1.7,0.4-2.5,0.8v6.1h-2.7v-8.9H910.6z"/>
	<path d="M925.3,45.9l0.2,1.3c0.9-0.9,2.1-1.5,3.4-1.6c1-0.1,2,0.5,2.3,1.4c0.9-0.9,2-1.4,3.2-1.4c1.2-0.2,2.3,0.7,2.5,1.9
		c0,0.2,0,0.4,0,0.5v6.7h-2.7v-5.8c0-0.3,0-0.6-0.2-0.8c-0.2-0.2-0.5-0.3-0.7-0.2c-0.3,0-0.6,0.1-0.8,0.2c-0.4,0.2-0.8,0.4-1.2,0.6
		v6.1h-2.6v-5.8c0-0.3-0.1-0.6-0.2-0.8c-0.2-0.2-0.5-0.3-0.7-0.2c-0.7,0.1-1.4,0.4-2,0.8v6.1h-2.7v-8.9H925.3z"/>
	<path d="M944.7,51.2h-3.2c0,0.5,0.2,1,0.6,1.3c0.5,0.3,1,0.4,1.5,0.3c1.1,0,2.2-0.1,3.3-0.2l0.3,1.7c-1.2,0.5-2.6,0.7-3.9,0.7
		c-1.3,0.1-2.6-0.3-3.6-1.1c-0.8-1-1.2-2.3-1.1-3.6c-0.1-1.3,0.2-2.6,1-3.7c1-0.8,2.2-1.2,3.5-1c1.1-0.1,2.3,0.2,3.2,0.8
		c0.7,0.6,1.1,1.4,1,2.3c0.1,0.7-0.2,1.4-0.6,1.9C946.2,51.1,945.4,51.3,944.7,51.2z M941.4,49.6h2.5c0.2,0,0.5-0.1,0.7-0.2
		c0.1-0.2,0.2-0.4,0.2-0.7c0-0.3-0.1-0.7-0.3-0.9c-0.4-0.2-0.8-0.3-1.2-0.2c-0.5-0.1-1,0.1-1.4,0.4
		C941.5,48.5,941.4,49.1,941.4,49.6L941.4,49.6z"/>
	<path d="M951.3,45.9l0.2,1.3c0.9-0.9,2.1-1.5,3.4-1.6c1-0.1,2,0.5,2.3,1.4c0.9-0.9,2-1.4,3.2-1.4c1.2-0.2,2.3,0.7,2.5,1.9
		c0,0.2,0,0.4,0,0.5v6.7h-2.7v-5.8c0-0.3,0-0.6-0.2-0.8c-0.2-0.2-0.5-0.3-0.7-0.2c-0.3,0-0.6,0.1-0.8,0.2c-0.4,0.2-0.8,0.4-1.2,0.6
		v6.1h-2.6v-5.8c0-0.3-0.1-0.6-0.2-0.8c-0.2-0.2-0.5-0.3-0.7-0.2c-0.7,0.1-1.4,0.4-2,0.8v6.1h-2.7v-8.9H951.3z"/>
	<path d="M969.2,45.6c1.3-0.1,2.5,0.3,3.5,1.1c0.8,1,1.2,2.3,1,3.6c0.1,1.3-0.2,2.6-1,3.6c-2.1,1.4-4.9,1.4-7.1,0
		c-0.8-1-1.2-2.3-1-3.6c-0.1-1.3,0.2-2.6,1-3.6C966.6,45.9,967.9,45.5,969.2,45.6z M969.2,47.6c-0.5-0.1-1.1,0.1-1.4,0.5
		c-0.3,0.7-0.4,1.4-0.4,2.2c-0.1,0.7,0.1,1.5,0.4,2.1c0.4,0.4,0.9,0.6,1.4,0.5c0.5,0.1,1.1-0.1,1.4-0.5c0.3-0.7,0.4-1.4,0.4-2.1
		c0.1-0.7-0.1-1.5-0.4-2.2C970.2,47.8,969.7,47.6,969.2,47.6L969.2,47.6z"/>
	<path d="M981.9,45.6l-0.3,2.5h-0.7c-0.9,0.1-1.9,0.3-2.7,0.6v6.1h-2.7v-8.9h2.1l0.2,1.3c1-0.9,2.3-1.5,3.6-1.6L981.9,45.6z"/>
	<path d="M992.1,45.9l-3.2,9c-0.2,0.5-0.4,0.9-0.6,1.3c-0.3,0.4-0.6,0.8-0.9,1.2c-0.4,0.4-0.9,0.7-1.4,0.8c-0.6,0.2-1.3,0.2-1.9,0.1
		l-0.2-1.6c0.6-0.1,1.2-0.4,1.7-0.7c0.4-0.3,0.7-0.7,1-1.2l0-0.1H986c-0.4,0-0.8-0.2-0.9-0.6l-2.9-8.2h2.9l1.7,5.8
		c0.1,0.4,0.2,0.9,0.3,1.3h0.2c0-0.1,0.1-0.4,0.2-0.7s0.1-0.5,0.2-0.7l1.6-5.8H992.1z"/>
	<path d="M913.5,62.2l0.3,1.2c-2,0.9-3,3.4-3,7.5c0,4,1,6.5,3,7.5l-0.3,1.2c-1.6-0.5-3.1-1.5-4-2.9c-0.9-1.7-1.4-3.7-1.3-5.7
		c-0.1-2,0.3-3.9,1.3-5.7C910.5,63.7,911.9,62.6,913.5,62.2z"/>
	<path d="M925.1,76.4h-2.9l-0.9-3.8c-0.1-0.3-0.2-0.6-0.5-0.8c-0.3-0.2-0.6-0.2-0.9-0.2l-1.9,0v4.9h-2.7V64c1.1-0.1,2.7-0.2,4.7-0.2
		c1.2-0.1,2.5,0.2,3.6,0.8c0.8,0.7,1.2,1.8,1,2.9c0,0.8-0.1,1.5-0.6,2.1c-0.4,0.6-1.1,0.9-1.8,0.9v0.1c0.9,0.2,1.6,0.9,1.8,1.9
		L925.1,76.4z M918,69.5h2c0.5,0.1,1-0.1,1.5-0.4c0.5-0.9,0.5-1.9,0-2.8c-0.4-0.3-1-0.4-1.5-0.4l-2,0L918,69.5z"/>
	<path d="M933.6,73.2h-4.3l-0.9,3.3h-2.8l3.6-11.7c0-0.2,0.2-0.4,0.3-0.5c0.2-0.1,0.4-0.2,0.6-0.2h2.6c0.5,0,0.9,0.3,1,0.7l3.6,11.7
		h-2.8L933.6,73.2z M933,71.1l-1-3.8c-0.1-0.6-0.2-1-0.3-1.2h-0.5c0,0.1-0.1,0.3-0.1,0.6c-0.1,0.3-0.1,0.5-0.1,0.6l-1,3.8L933,71.1z
		"/>
	<path d="M948.6,64h2.7c0.5-0.1,1,0.3,1,0.8c0,0.1,0,0.1,0,0.2l0.5,11.4h-2.6l-0.4-10.3h-0.3l-1.9,7.7c-0.1,0.5-0.6,0.9-1.1,0.9
		h-1.8c-0.6,0.1-1-0.3-1.1-0.9l-1.9-7.7h-0.3L941,76.4h-2.6l0.5-11.4c-0.1-0.5,0.3-1,0.8-1c0.1,0,0.1,0,0.2,0h2.7
		c0.5,0,1,0.3,1.1,0.9l1.5,6.2c0.1,0.4,0.2,1,0.3,1.8h0.2c0-0.1,0.1-0.3,0.1-0.7s0.1-0.8,0.2-1l1.5-6.2C947.5,64.3,948,64,948.6,64z
		"/>
	<path d="M953.7,63.3l0.3-1.2c1.6,0.4,3.1,1.5,4,2.9c0.9,1.7,1.4,3.7,1.3,5.7c0.1,2-0.3,3.9-1.3,5.7c-0.9,1.4-2.3,2.5-4,2.9
		l-0.3-1.2c2-1,3-3.5,3-7.5C956.7,66.7,955.7,64.2,953.7,63.3z"/>
</g>
<g>
	<path d="M465.3,174.5h1c0.4,0,0.7,0.1,1,0.3c0.2,0.3,0.3,0.6,0.3,1v1.2c0.1,0.6-0.2,1.1-0.8,1.3c-0.2,0-0.3,0-0.5,0h-1
		c-0.6,0.1-1.1-0.2-1.3-0.8c0-0.2,0-0.3,0-0.5v-1.2c0-0.3,0.1-0.7,0.3-1C464.6,174.6,465,174.5,465.3,174.5z"/>
	<path d="M471.3,174.5h1c0.4,0,0.7,0.1,1,0.3c0.2,0.3,0.3,0.6,0.3,1v1.2c0.1,0.6-0.2,1.1-0.8,1.3c-0.2,0-0.3,0-0.5,0h-1
		c-0.6,0.1-1.1-0.2-1.3-0.8c0-0.2,0-0.3,0-0.5v-1.2c0-0.3,0.1-0.7,0.3-1C470.6,174.6,471,174.5,471.3,174.5z"/>
	<path d="M477.3,174.5h1c0.4,0,0.7,0.1,1,0.3c0.2,0.3,0.3,0.6,0.3,1v1.2c0.1,0.6-0.2,1.1-0.8,1.3c-0.2,0-0.3,0-0.5,0h-1
		c-0.6,0.1-1.1-0.2-1.3-0.8c0-0.2,0-0.3,0-0.5v-1.2c0-0.3,0.1-0.7,0.3-1C476.6,174.6,476.9,174.5,477.3,174.5z"/>
</g>
<polygon points="978.2,480 987.1,480 982.6,472.3 978,464.7 973.7,472.4 969.3,480.1 "/>
<polygon points="978.2,507.7 969.3,507.8 973.8,515.5 978.4,523.1 982.7,515.4 987.1,507.7 "/>
<polygon points="628.2,478 637.1,478 632.6,470.3 628,462.7 623.7,470.4 619.3,478.1 "/>
<polygon points="628.2,507.7 619.3,507.8 623.8,515.5 628.4,523.1 632.7,515.4 637.1,507.7 "/>
<polygon points="882.2,494 891.1,494 886.6,486.3 882,478.7 877.7,486.4 873.3,494.1 "/>
<polygon points="852.2,494 861.1,494 856.6,486.3 852,478.7 847.7,486.4 843.3,494.1 "/>
<polygon points="852.2,592.7 843.3,592.8 847.8,600.5 852.4,608.1 856.7,600.4 861.1,592.7 "/>
<polygon points="312.2,592.7 303.3,592.8 307.8,600.5 312.4,608.1 316.7,600.4 321.1,592.7 "/>
<polygon points="352.2,452 361.1,452 356.6,444.3 352,436.7 347.7,444.4 343.3,452.1 "/>
<polygon points="352.2,550.7 343.3,550.8 347.8,558.5 352.4,566.1 356.7,558.4 361.1,550.7 "/>
<polyline class="st9" points="215.6,150.9 215.6,196.5 244,196.5 244,280.6 "/>
<polyline class="st9" points="351,280.6 349.6,197.8 731.4,197.8 731.4,148.3 "/>
<polyline class="st11" points="626.8,251.4 626.8,283.1 400.9,282.7 "/>
<line class="st9" x1="626.8" y1="441.1" x2="400.9" y2="440.7"/>
<polyline class="st11" points="707.8,331.1 707.8,295.4 400.9,295.7 "/>
<polyline class="st11" points="644.8,344.1 644.8,308.4 337.9,308.7 "/>
<line class="st11" x1="676.8" y1="378.4" x2="400.9" y2="378.7"/>
<polyline class="st11" points="676.8,380.4 676.8,412.1 400.9,411.7 "/>
<path class="st5" d="M199.2,275.4H400c6,0,10.8,4.8,10.8,10.8v161c0,6-4.8,10.8-10.8,10.8H199.2c-6,0-10.8-4.8-10.8-10.8v-161
	C188.4,280.2,193.3,275.4,199.2,275.4z"/>
<rect x="188.4" y="125.7" class="st5" width="568.5" height="34.7"/>
<line class="st12" x1="244" y1="125.7" x2="244" y2="160.3"/>
<line class="st12" x1="301" y1="125.7" x2="301" y2="160.3"/>
<line class="st12" x1="358" y1="125.7" x2="358" y2="160.3"/>
<line class="st12" x1="416" y1="125.7" x2="416" y2="160.3"/>
<line class="st12" x1="473" y1="125.7" x2="473" y2="160.3"/>
<line class="st12" x1="530" y1="125.7" x2="530" y2="160.3"/>
<line class="st12" x1="588" y1="125.7" x2="588" y2="160.3"/>
<line class="st12" x1="646" y1="125.7" x2="646" y2="160.3"/>
<line class="st12" x1="702" y1="125.7" x2="702" y2="160.3"/>
<rect x="468.6" y="216.3" class="st10" width="146.4" height="36.3"/>
<rect x="615.6" y="216.3" class="st5" width="141.4" height="36.3"/>
<g>
	<path d="M489.6,238.6h-4.7l-1,3.6h-3.1l4-13c0-0.2,0.2-0.4,0.4-0.6c0.2-0.1,0.4-0.2,0.7-0.2h2.9c0.5,0,1,0.3,1.1,0.8l4,13h-3.1
		L489.6,238.6z M489,236.3l-1.2-4.2c-0.2-0.7-0.3-1.1-0.3-1.3H487c0,0.1-0.1,0.3-0.1,0.6s-0.1,0.5-0.2,0.7l-1.2,4.2H489z"/>
	<path d="M503.1,239.9l0.3,1.9c-1.2,0.5-2.5,0.7-3.8,0.7c-1.8,0-3.1-0.4-3.8-1.2s-1.1-2.1-1.1-4c0-1.9,0.4-3.2,1.1-4s2-1.2,3.9-1.2
		c1.2,0,2.5,0.2,3.6,0.6l-0.3,1.8c-1.4,0-2.4,0-2.8,0c-0.7-0.1-1.4,0.1-1.9,0.6c-0.7,1.4-0.7,3,0,4.4c0.5,0.4,1.2,0.7,1.9,0.6
		C501.1,240.1,502.1,240,503.1,239.9z"/>
	<path d="M513.1,239.9l0.3,1.9c-1.2,0.5-2.5,0.7-3.8,0.7c-1.8,0-3.1-0.4-3.8-1.2s-1.1-2.1-1.1-4c0-1.9,0.4-3.2,1.1-4s2-1.2,3.9-1.2
		c1.2,0,2.5,0.2,3.6,0.6l-0.3,1.8c-1.4,0-2.4,0-2.8,0c-0.7-0.1-1.4,0.1-1.9,0.6c-0.7,1.4-0.7,3,0,4.4c0.5,0.4,1.2,0.7,1.9,0.6
		C511.1,240.1,512.1,240,513.1,239.9z"/>
	<path d="M524.5,232.4v9.9h-2.3l-0.2-1.4c-1.1,1-2.6,1.6-4.1,1.6c-1.3,0.2-2.6-0.7-2.8-2.1c0-0.2,0-0.5,0-0.7v-7.4h3v6.5
		c0,0.3,0,0.6,0.2,0.9c0.2,0.2,0.5,0.3,0.8,0.3c0.9-0.1,1.7-0.4,2.5-0.8v-6.8L524.5,232.4z"/>
	<path d="M529.3,232.4l0.2,1.4c1-1,2.3-1.6,3.8-1.7c1.1-0.1,2.2,0.5,2.5,1.6c1-1,2.2-1.5,3.6-1.6c1.3-0.2,2.6,0.8,2.7,2.1
		c0,0.2,0,0.4,0,0.6v7.4h-2.9v-6.5c0-0.3,0-0.6-0.2-0.9c-0.2-0.2-0.5-0.3-0.8-0.3c-0.3,0-0.6,0.1-0.9,0.2c-0.4,0.2-0.9,0.4-1.3,0.7
		v6.8h-2.8v-6.5c0-0.3-0.1-0.6-0.2-0.9c-0.2-0.2-0.5-0.3-0.8-0.3c-0.8,0.1-1.5,0.4-2.2,0.9v6.8h-2.9v-9.9L529.3,232.4z"/>
	<path d="M553.8,232.4v9.9h-2.3l-0.2-1.4c-1.1,1-2.6,1.6-4.1,1.6c-1.3,0.2-2.6-0.7-2.8-2.1c0-0.2,0-0.5,0-0.7v-7.4h3v6.5
		c0,0.3,0,0.6,0.2,0.9c0.2,0.2,0.5,0.3,0.8,0.3c0.9-0.1,1.7-0.4,2.5-0.8v-6.8L553.8,232.4z"/>
	<path d="M559.2,228.2V239c0,0.7,0.4,1,1.1,1h0.8l0.3,2.1c-0.7,0.3-1.6,0.4-2.4,0.4c-0.8,0-1.5-0.2-2.1-0.7c-0.5-0.5-0.8-1.3-0.8-2
		v-11.5L559.2,228.2z"/>
	<path d="M563.1,234.6l-0.3-2c1.7-0.3,3.4-0.5,5.1-0.5c1-0.1,2.1,0.2,2.9,0.8c0.7,0.8,1,1.8,0.9,2.8v6.5h-2.3l-0.3-1.5
		c-0.9,1.1-2.2,1.8-3.6,1.7c-0.8,0-1.7-0.2-2.3-0.8c-0.6-0.5-0.9-1.3-0.9-2.1v-1c0-0.7,0.3-1.4,0.8-1.8c0.6-0.5,1.4-0.7,2.2-0.7h3.5
		v-0.4c0-0.4-0.1-0.7-0.3-1c-0.4-0.2-0.8-0.3-1.3-0.3C566.2,234.4,564.8,234.5,563.1,234.6z M565.2,238.9v0.4c0,0.7,0.4,1,1.2,1
		c0.9,0,1.8-0.4,2.5-1v-1.4h-2.7c-0.5-0.1-0.9,0.3-1,0.7C565.2,238.7,565.2,238.8,565.2,238.9L565.2,238.9z"/>
	<path d="M578,234.4v4.7c0,0.3,0.1,0.6,0.2,0.8c0.2,0.2,0.5,0.3,0.8,0.2h1.3l0.3,2.1c-0.9,0.3-1.8,0.4-2.8,0.4
		c-0.8,0-1.5-0.2-2.1-0.8c-0.5-0.6-0.8-1.3-0.7-2.1v-5.3h-1.7v-1.9l1.7-0.1v-2.8h2.9v2.8h2.7v2L578,234.4z"/>
	<path d="M587,232.1c1.4-0.1,2.8,0.3,3.9,1.2c0.8,0.8,1.2,2.1,1.2,4s-0.4,3.2-1.2,4c-1.1,0.9-2.5,1.3-3.9,1.2
		c-1.9,0-3.2-0.4-3.9-1.2c-0.8-0.8-1.2-2.1-1.2-4c0-1.9,0.4-3.3,1.2-4C583.9,232.5,585.2,232.1,587,232.1z M587,234.3
		c-0.6-0.1-1.2,0.1-1.6,0.6c-0.3,0.8-0.5,1.6-0.4,2.4c-0.1,0.8,0.1,1.6,0.4,2.4c0.4,0.5,1,0.7,1.6,0.6c0.6,0.1,1.2-0.2,1.5-0.6
		c0.3-0.7,0.5-1.6,0.4-2.4c0.1-0.8-0.1-1.6-0.4-2.4C588.2,234.5,587.6,234.2,587,234.3L587,234.3z"/>
	<path d="M601.2,232.1l-0.3,2.7h-0.8c-1,0.1-2.1,0.3-3,0.7v6.7h-3v-9.9h2.3l0.3,1.4c1.1-1,2.5-1.6,4-1.7L601.2,232.1z"/>
</g>
<rect x="468.6" y="422.3" class="st10" width="126.8" height="36.3"/>
<rect x="595.3" y="422.3" class="st5" width="161.6" height="36.3"/>
<g>
	<path d="M491.5,434.4h2.9c0.6-0.1,1.1,0.3,1.1,0.9c0,0.1,0,0.2,0,0.2l0.5,12.7h-2.9l-0.5-11.4h-0.3l-2.1,8.5c-0.1,0.6-0.6,1-1.2,1
		h-2c-0.6,0.1-1.2-0.4-1.2-1l-2.1-8.5h-0.3l-0.4,11.4h-2.9l0.5-12.7c-0.1-0.6,0.4-1.1,0.9-1.1c0.1,0,0.1,0,0.2,0h2.9
		c0.6,0,1.1,0.4,1.2,1l1.7,6.9c0.1,0.4,0.2,1.1,0.4,1.9h0.3c0-0.1,0.1-0.3,0.1-0.8c0.1-0.5,0.2-0.9,0.2-1.1l1.7-6.9
		C490.3,434.8,490.9,434.4,491.5,434.4z"/>
	<path d="M506.3,441L506.3,441c0.9,0.1,1.7,0.5,2.2,1.1c0.5,0.8,0.7,1.7,0.7,2.6c0.1,1.1-0.3,2.1-1.1,2.8c-1.1,0.6-2.4,0.9-3.6,0.8
		c-2.6,0-4.5-0.1-5.8-0.2v-13.8c1.2-0.1,2.9-0.2,5.2-0.2c1.3-0.1,2.6,0.1,3.8,0.8c0.8,0.7,1.2,1.8,1.1,2.9c0.1,0.8-0.1,1.6-0.6,2.3
		C507.7,440.7,507,441,506.3,441z M501.6,440.1h2.2c0.5,0.1,1.1-0.1,1.5-0.4c0.3-0.4,0.5-0.9,0.4-1.4c0.1-0.5-0.1-1-0.4-1.4
		c-0.5-0.3-1.1-0.4-1.7-0.3l-2.1,0L501.6,440.1z M501.6,446.1h2.3c0.6,0.1,1.2-0.1,1.7-0.4c0.4-0.4,0.5-1,0.4-1.5
		c0.1-0.6-0.1-1.2-0.5-1.7c-0.5-0.3-1.1-0.5-1.8-0.4h-2.2L501.6,446.1z"/>
	<path d="M522.2,448.2H519l-1-4.2c-0.1-0.4-0.3-0.7-0.5-0.9c-0.3-0.2-0.6-0.3-1-0.2l-2.1,0v5.4h-3v-13.8c1.2-0.1,3-0.2,5.3-0.2
		c1.4-0.1,2.7,0.2,3.9,0.9c0.9,0.8,1.3,2,1.2,3.2c0,0.8-0.2,1.7-0.6,2.4c-0.5,0.6-1.2,1-2,1v0.1c1,0.2,1.8,1,2,2.1L522.2,448.2z
		 M514.4,440.5h2.2c0.6,0.1,1.2-0.1,1.6-0.4c0.6-0.9,0.6-2.1,0-3.1c-0.5-0.3-1.1-0.5-1.7-0.4l-2.2,0L514.4,440.5z"/>
	<path d="M525.6,449.7h-2.3l7.9-15.2h2.3L525.6,449.7z"/>
	<path d="M546.3,434.4h2.9c0.6-0.1,1.1,0.3,1.1,0.9c0,0.1,0,0.2,0,0.2l0.5,12.7H548l-0.5-11.4h-0.3l-2.1,8.5c-0.1,0.6-0.6,1-1.2,1
		h-2c-0.6,0.1-1.2-0.4-1.2-1l-2.1-8.5h-0.3l-0.4,11.4H535l0.5-12.7c-0.1-0.6,0.4-1.1,0.9-1.1c0.1,0,0.1,0,0.2,0h2.9
		c0.6,0,1.1,0.4,1.2,1l1.7,6.9c0.1,0.4,0.2,1.1,0.4,1.9h0.3c0-0.1,0.1-0.3,0.2-0.8c0.1-0.5,0.2-0.9,0.2-1.1l1.7-6.9
		C545.2,434.8,545.7,434.4,546.3,434.4z"/>
	<path d="M553.4,448.2v-13.8c1.9-0.1,3.7-0.2,5.4-0.2c2.2,0,3.7,0.5,4.6,1.5s1.3,2.9,1.3,5.6c0,2.7-0.4,4.5-1.3,5.6
		s-2.4,1.5-4.6,1.5C557.1,448.4,555.3,448.4,553.4,448.2z M556.5,436.7v9.3c0.2,0,0.6,0,1.1,0c0.5,0,0.9,0,1.2,0
		c0.8,0.1,1.6-0.3,2.1-1c0.8-2.4,0.8-5,0-7.4c-0.5-0.7-1.3-1.1-2.1-1L556.5,436.7z"/>
	<path d="M577.9,448.2h-3.2l-1-4.2c-0.1-0.4-0.3-0.7-0.5-0.9c-0.3-0.2-0.6-0.3-1-0.2l-2.1,0v5.4h-3v-13.8c1.2-0.1,3-0.2,5.3-0.2
		c1.4-0.1,2.7,0.2,3.9,0.9c0.9,0.8,1.3,2,1.2,3.2c0,0.8-0.2,1.7-0.6,2.4c-0.5,0.6-1.2,1-2,1v0.1c1,0.2,1.8,1,2,2.1L577.9,448.2z
		 M570,440.5h2.2c0.6,0.1,1.2-0.1,1.6-0.4c0.6-0.9,0.6-2.1,0-3.1c-0.5-0.3-1.1-0.5-1.7-0.4l-2.2,0L570,440.5z"/>
</g>
<g>
	<path d="M251.4,297.9l0.3,2.3c-1.4,0.4-2.9,0.6-4.4,0.6c-2.1,0-3.6-0.5-4.5-1.6c-0.9-1.1-1.3-2.9-1.3-5.5s0.4-4.5,1.3-5.5
		c0.9-1.1,2.4-1.6,4.5-1.6c1.4,0,2.8,0.1,4.1,0.5l-0.3,2.3c-1.1-0.1-2.4-0.1-3.9-0.1c-0.8-0.1-1.6,0.3-2.1,1c-0.7,2.3-0.7,4.8,0,7.1
		c0.5,0.7,1.2,1,2.1,0.9C248.6,298.1,250,298,251.4,297.9z"/>
	<path d="M258.1,290.3c1.4-0.1,2.8,0.3,3.9,1.2c0.8,0.8,1.1,2.1,1.1,4c0,1.9-0.4,3.2-1.1,4c-1.1,0.9-2.5,1.3-3.9,1.2
		c-1.9,0-3.2-0.4-3.9-1.2c-0.8-0.8-1.1-2.1-1.1-4c0-1.9,0.4-3.3,1.1-4S256.2,290.3,258.1,290.3z M258.1,292.5
		c-0.6-0.1-1.2,0.1-1.6,0.6c-0.3,0.8-0.5,1.6-0.4,2.4c-0.1,0.8,0.1,1.6,0.4,2.4c0.4,0.5,1,0.7,1.6,0.6c0.6,0.1,1.2-0.2,1.5-0.6
		c0.3-0.7,0.5-1.6,0.4-2.4c0.1-0.8-0.1-1.6-0.4-2.4C259.2,292.7,258.7,292.5,258.1,292.5L258.1,292.5z"/>
	<path d="M267.6,290.6l0.2,1.5c1.2-1.1,2.7-1.7,4.2-1.7c0.7-0.1,1.5,0.2,2.1,0.7c0.5,0.6,0.8,1.3,0.7,2v7.4h-2.9V294
		c0-0.3,0-0.6-0.2-0.9c-0.2-0.2-0.5-0.3-0.8-0.2c-1,0.1-1.9,0.4-2.7,0.9v6.7h-3v-9.9L267.6,290.6z"/>
	<path d="M281,292.6v4.7c0,0.3,0.1,0.6,0.2,0.8c0.2,0.2,0.5,0.3,0.8,0.2h1.3l0.3,2.1c-0.9,0.3-1.8,0.4-2.8,0.4
		c-0.8,0-1.5-0.2-2.1-0.8c-0.5-0.6-0.8-1.3-0.7-2.1v-5.3h-1.7v-1.9l1.7-0.1v-2.8h2.9v2.8h2.7v2L281,292.6z"/>
	<path d="M292.4,290.3l-0.3,2.7h-0.8c-1,0.1-2.1,0.3-3,0.7v6.7h-3v-9.9h2.3l0.3,1.4c1.1-1,2.5-1.6,4-1.7L292.4,290.3z"/>
	<path d="M298.4,290.3c1.4-0.1,2.8,0.3,3.9,1.2c0.8,0.8,1.1,2.1,1.1,4c0,1.9-0.4,3.2-1.1,4c-1.1,0.9-2.5,1.3-3.9,1.2
		c-1.9,0-3.2-0.4-3.9-1.2c-0.8-0.8-1.1-2.1-1.1-4c0-1.9,0.4-3.3,1.1-4S296.5,290.3,298.4,290.3z M298.4,292.5
		c-0.6-0.1-1.2,0.1-1.6,0.6c-0.3,0.8-0.5,1.6-0.4,2.4c-0.1,0.8,0.1,1.6,0.4,2.4c0.4,0.5,1,0.7,1.6,0.6c0.6,0.1,1.2-0.2,1.5-0.6
		c0.3-0.7,0.5-1.6,0.4-2.4c0.1-0.8-0.1-1.6-0.4-2.4C299.5,292.7,299,292.5,298.4,292.5L298.4,292.5z"/>
	<path d="M308.4,286.5v10.8c0,0.7,0.4,1,1.1,1h0.8l0.3,2.1c-0.7,0.3-1.6,0.4-2.4,0.4c-0.8,0-1.5-0.2-2.1-0.7c-0.5-0.5-0.8-1.3-0.8-2
		v-11.5L308.4,286.5z"/>
	<path d="M325.3,290.6v9.9h-2.3l-0.2-1.4c-1.1,1-2.6,1.6-4.1,1.6c-1.3,0.2-2.6-0.7-2.8-2.1c0-0.2,0-0.5,0-0.7v-7.4h3v6.5
		c0,0.3,0,0.6,0.2,0.9c0.2,0.2,0.5,0.3,0.8,0.3c0.9-0.1,1.7-0.4,2.5-0.8v-6.8L325.3,290.6z"/>
	<path d="M330.1,290.6l0.2,1.5c1.2-1.1,2.7-1.7,4.2-1.7c0.7-0.1,1.5,0.2,2.1,0.7c0.5,0.6,0.8,1.3,0.7,2v7.4h-2.9V294
		c0-0.3,0-0.6-0.2-0.9c-0.2-0.2-0.5-0.3-0.8-0.2c-1,0.1-1.9,0.4-2.7,0.9v6.7h-3v-9.9L330.1,290.6z"/>
	<path d="M340.6,286.2h1.3c0.4-0.1,0.8,0.2,0.9,0.6c0,0.1,0,0.1,0,0.2v1.1c0.1,0.4-0.2,0.8-0.6,0.9c-0.1,0-0.1,0-0.2,0h-1.3
		c-0.4,0.1-0.8-0.2-0.9-0.6c0-0.1,0-0.1,0-0.2v-1.1c-0.1-0.4,0.2-0.8,0.6-0.9C340.4,286.2,340.5,286.2,340.6,286.2z M342.7,300.5
		h-2.9v-9.9h2.9V300.5z"/>
	<path d="M349,292.6v4.7c0,0.3,0.1,0.6,0.2,0.8c0.2,0.2,0.5,0.3,0.8,0.2h1.3l0.3,2.1c-0.9,0.3-1.8,0.4-2.8,0.4
		c-0.8,0-1.5-0.2-2.1-0.8c-0.5-0.6-0.8-1.3-0.7-2.1v-5.3h-1.7v-1.9l1.7-0.1v-2.8h2.9v2.8h2.7v2L349,292.6z"/>
</g>
<rect x="205.1" y="313.3" class="st10" width="55.5" height="27.1"/>
<rect x="260.5" y="313.3" class="st13" width="131.5" height="27.1"/>
<g>
	<path d="M223,332.6v-10.3c0.9-0.1,2.2-0.1,3.9-0.1c1-0.1,2.1,0.1,3,0.7c0.6,0.7,0.9,1.7,0.8,2.7c0.1,1-0.2,1.9-0.8,2.7
		c-0.8,0.6-1.7,0.8-2.7,0.7c-0.6,0-1.3,0-1.9-0.1v3.8H223z M225.3,327.2h1.6c0.4,0,0.9-0.1,1.2-0.3c0.4-0.8,0.4-1.8,0-2.6
		c-0.3-0.3-0.8-0.4-1.2-0.3l-1.6,0V327.2z"/>
	<path d="M239.2,330.7l0.2,1.7c-1.1,0.3-2.2,0.4-3.3,0.4c-1.2,0.1-2.5-0.3-3.4-1.2c-1.3-2.6-1.3-5.7,0-8.3c0.9-0.9,2.1-1.3,3.4-1.2
		c1,0,2.1,0.1,3.1,0.3l-0.2,1.7c-0.8,0-1.8-0.1-2.9-0.1c-0.6-0.1-1.2,0.2-1.5,0.7c-0.5,1.7-0.5,3.6,0,5.3c0.3,0.5,0.9,0.8,1.5,0.7
		C237.2,330.9,238.2,330.8,239.2,330.7z"/>
</g>
<rect x="205.1" y="346.3" class="st10" width="55.5" height="27.1"/>
<rect x="260.5" y="346.3" class="st13" width="131.5" height="27.1"/>
<g>
	<path d="M226.6,361.8l-2.1-0.7c-1.4-0.3-2.3-1.6-2.1-3c-0.1-0.8,0.2-1.7,0.8-2.3c0.9-0.5,1.9-0.7,2.9-0.6c1.1,0,2.3,0.1,3.4,0.4
		l-0.1,1.5c-0.9,0-1.9,0-3.2,0c-0.4,0-0.8,0-1.2,0.2c-0.2,0.1-0.3,0.4-0.3,0.8c0,0.3,0.1,0.5,0.2,0.7c0.2,0.2,0.5,0.4,0.9,0.4l2,0.7
		c0.7,0.2,1.3,0.6,1.7,1.1c0.4,0.6,0.5,1.2,0.5,1.9c0.1,0.9-0.2,1.7-0.8,2.3c-0.9,0.5-1.9,0.7-3,0.6c-1.2,0-2.4-0.1-3.5-0.4l0.1-1.6
		c2.1,0,3.3,0.1,3.4,0.1c0.4,0,0.8,0,1.2-0.2c0.2-0.2,0.3-0.5,0.3-0.8c0-0.3,0-0.5-0.2-0.7C227.1,362,226.9,361.8,226.6,361.8z"/>
	<path d="M239.6,365.6h-2.4l-0.8-3.1c-0.1-0.3-0.2-0.5-0.4-0.7c-0.2-0.1-0.5-0.2-0.7-0.2l-1.6,0v4h-2.2v-10.3
		c0.9-0.1,2.2-0.1,3.9-0.1c1-0.1,2,0.1,2.9,0.7c0.6,0.6,1,1.5,0.9,2.4c0,0.6-0.1,1.2-0.5,1.8c-0.4,0.5-0.9,0.7-1.5,0.8v0.1
		c0.8,0.2,1.3,0.8,1.5,1.6L239.6,365.6z M233.7,359.9h1.6c0.4,0,0.9-0.1,1.2-0.3c0.4-0.7,0.4-1.6,0-2.3c-0.4-0.2-0.8-0.3-1.2-0.3
		l-1.6,0V359.9z"/>
</g>
<rect x="205.1" y="379.3" class="st10" width="55.5" height="27.1"/>
<rect x="260.5" y="379.3" class="st13" width="131.5" height="27.1"/>
<g>
	<path d="M227.7,396.7l0.2,1.7c-1.1,0.3-2.2,0.4-3.3,0.4c-1.2,0.1-2.5-0.3-3.4-1.2c-1.3-2.6-1.3-5.7,0-8.3c0.9-0.9,2.1-1.3,3.4-1.2
		c1,0,2.1,0.1,3.1,0.3l-0.2,1.7c-0.8,0-1.8-0.1-2.9-0.1c-0.6-0.1-1.2,0.2-1.5,0.7c-0.5,1.7-0.5,3.6,0,5.3c0.3,0.5,0.9,0.8,1.5,0.7
		C225.6,396.9,226.6,396.8,227.7,396.7z"/>
	<path d="M231.6,398.6h-2.3v-10.3h2.3V398.6z"/>
	<path d="M241.8,398.6h-2.4l-0.8-3.1c-0.1-0.3-0.2-0.5-0.4-0.7c-0.2-0.1-0.5-0.2-0.7-0.2l-1.6,0v4h-2.2v-10.3
		c0.9-0.1,2.2-0.1,3.9-0.1c1-0.1,2,0.1,2.9,0.7c0.6,0.6,1,1.5,0.9,2.4c0,0.6-0.1,1.2-0.5,1.8c-0.4,0.5-0.9,0.7-1.5,0.8v0.1
		c0.8,0.2,1.3,0.8,1.5,1.6L241.8,398.6z M235.9,392.9h1.6c0.4,0,0.9-0.1,1.2-0.3c0.4-0.7,0.4-1.6,0-2.3c-0.4-0.2-0.8-0.3-1.2-0.3
		l-1.6,0L235.9,392.9z"/>
</g>
<polygon points="606.4,329.4 662.5,329.4 676.8,350.3 688.4,329.4 747.1,329.4 713,397 643.1,397 "/>
<g>
	<path class="st5" d="M667.1,377h-4.7l-1,3.6h-3.1l4-13c0-0.2,0.2-0.4,0.4-0.6c0.2-0.1,0.4-0.2,0.7-0.2h2.9c0.5,0,1,0.3,1.1,0.8
		l4,13h-3.1L667.1,377z M666.5,374.6l-1.2-4.2c-0.2-0.7-0.3-1.1-0.3-1.3h-0.5c0,0.1-0.1,0.3-0.1,0.6s-0.1,0.5-0.2,0.7l-1.2,4.2
		L666.5,374.6z"/>
	<path class="st5" d="M675.6,366.8v10.3c0,0.3,0.1,0.6,0.2,0.8c0.2,0.2,0.5,0.3,0.8,0.2h4.7l0.1,2.3c-1.9,0.2-3.9,0.2-5.8,0.2
		c-0.9,0.1-1.7-0.2-2.4-0.8c-0.5-0.6-0.8-1.4-0.8-2.1v-10.9L675.6,366.8z"/>
	<path class="st5" d="M694,366.8v8.3c0,2.1-0.4,3.6-1.2,4.5c-0.8,0.9-2.2,1.3-4.2,1.3c-2.1,0-3.5-0.4-4.4-1.3
		c-0.8-0.9-1.3-2.4-1.3-4.5v-8.3h3v8.3c-0.1,0.9,0.1,1.8,0.5,2.6c0.5,0.5,1.2,0.8,2,0.7c0.7,0.1,1.4-0.2,1.9-0.7
		c0.4-0.8,0.6-1.7,0.5-2.6v-8.3H694z"/>
</g>
<g>
	<path d="M162.9,539.5v-13.8c1.9-0.1,3.7-0.2,5.4-0.2c2.2,0,3.7,0.5,4.6,1.5c0.9,1,1.3,2.9,1.3,5.6c0,2.7-0.4,4.5-1.3,5.6
		c-0.9,1-2.4,1.5-4.6,1.5C166.6,539.6,164.8,539.6,162.9,539.5z M166,527.9v9.3c0.2,0,0.6,0,1.1,0c0.5,0,0.9,0,1.2,0
		c0.8,0.1,1.6-0.3,2.1-1c0.8-2.4,0.8-5,0-7.4c-0.5-0.7-1.3-1.1-2.1-1L166,527.9z"/>
	<path d="M176.6,531.8l-0.3-2c1.7-0.3,3.4-0.5,5.1-0.5c1-0.1,2.1,0.2,2.9,0.8c0.7,0.8,1.1,1.8,0.9,2.8v6.5H183l-0.3-1.5
		c-0.9,1.1-2.2,1.8-3.6,1.7c-0.8,0-1.7-0.2-2.3-0.8c-0.6-0.5-0.9-1.3-0.9-2.1v-1c0-0.7,0.3-1.4,0.8-1.8c0.6-0.5,1.4-0.7,2.2-0.7h3.5
		v-0.4c0-0.4-0.1-0.7-0.4-1c-0.4-0.2-0.8-0.3-1.3-0.3C179.7,531.6,178.3,531.7,176.6,531.8z M178.8,536.1v0.4c0,0.7,0.4,1,1.2,1
		c0.9,0,1.8-0.4,2.5-1v-1.4h-2.7c-0.5-0.1-0.9,0.3-1,0.7C178.8,535.9,178.8,536,178.8,536.1L178.8,536.1z"/>
	<path d="M191.5,531.6v4.7c0,0.3,0.1,0.6,0.2,0.8c0.2,0.2,0.5,0.3,0.8,0.2h1.3l0.3,2.1c-0.9,0.3-1.8,0.4-2.8,0.4
		c-0.8,0-1.5-0.2-2.1-0.8c-0.5-0.6-0.8-1.3-0.7-2.1v-5.3h-1.7v-1.9l1.7-0.1v-2.8h2.9v2.8h2.7v2L191.5,531.6z"/>
	<path d="M196.2,531.8l-0.3-2c1.7-0.3,3.4-0.5,5.1-0.5c1-0.1,2.1,0.2,2.9,0.8c0.7,0.8,1,1.8,0.9,2.8v6.5h-2.3l-0.3-1.5
		c-0.9,1.1-2.2,1.8-3.6,1.7c-0.8,0-1.7-0.2-2.3-0.8c-0.6-0.5-0.9-1.3-0.9-2.1v-1c0-0.7,0.3-1.4,0.8-1.8c0.6-0.5,1.4-0.7,2.2-0.7h3.5
		v-0.4c0-0.4-0.1-0.7-0.4-1c-0.4-0.2-0.8-0.3-1.3-0.3C199.2,531.6,197.9,531.7,196.2,531.8z M198.3,536.1v0.4c0,0.7,0.4,1,1.2,1
		c0.9,0,1.8-0.4,2.5-1v-1.4h-2.7c-0.5-0.1-0.9,0.3-1,0.7C198.3,535.9,198.3,536,198.3,536.1L198.3,536.1z"/>
	<path d="M214.5,525.5v3.1c0,0.8-0.1,1.6-0.3,2.3c0.9-1,2.2-1.6,3.5-1.6c1.1-0.1,2.1,0.4,2.8,1.2c0.7,1.2,1,2.6,0.9,3.9
		c0.1,1.4-0.3,2.7-1,3.9c-0.7,0.9-2,1.4-3.8,1.4c-0.9,0-1.8-0.1-2.7-0.2c-0.8-0.1-1.6-0.3-2.3-0.6v-13.5H214.5z M214.5,532.5v4.8
		c0.7,0.1,1.3,0.2,2,0.2c0.6,0,1.1-0.2,1.4-0.7c0.3-0.7,0.5-1.6,0.4-2.4c0.1-0.8-0.1-1.5-0.3-2.2c-0.3-0.4-0.9-0.6-1.4-0.6
		C215.8,531.8,215.1,532,214.5,532.5L214.5,532.5z"/>
	<path d="M232.8,529.6v9.9h-2.3l-0.2-1.4c-1.1,1-2.6,1.6-4.1,1.6c-1.3,0.2-2.6-0.7-2.8-2.1c0-0.2,0-0.5,0-0.7v-7.4h3v6.5
		c0,0.3,0,0.6,0.2,0.9c0.2,0.2,0.5,0.3,0.8,0.3c0.9-0.1,1.7-0.4,2.5-0.8v-6.8L232.8,529.6z"/>
	<path d="M239.6,535.8l-2.5-0.7c-0.7-0.2-1.4-0.5-1.9-1.1c-0.4-0.6-0.6-1.2-0.5-1.9c-0.1-0.8,0.3-1.7,0.9-2.2c1-0.5,2.1-0.7,3.2-0.6
		c1.5,0,3.1,0.1,4.6,0.4l-0.2,1.9c-1.7,0-2.9,0-3.8,0c-0.5,0-0.8,0-1,0c-0.2,0-0.4,0-0.5,0.1c-0.2,0-0.3,0.1-0.3,0.2
		c0,0.1-0.1,0.3-0.1,0.4c0,0.1,0,0.1,0,0.2c0,0.1,0,0.1,0.1,0.1c0,0,0,0.1,0.1,0.1c0,0,0.1,0.1,0.1,0.1c0,0,0.1,0,0.1,0.1
		c0,0,0.1,0,0.2,0.1c0.1,0,0.1,0.1,0.2,0.1c0,0,0.1,0,0.3,0.1c0.1,0,0.2,0.1,0.3,0.1l2.5,0.7c0.7,0.2,1.4,0.5,1.9,1
		c0.4,0.5,0.6,1.2,0.6,1.9c0.1,0.9-0.3,1.8-1,2.4c-1.1,0.5-2.3,0.7-3.5,0.6c-1.5,0-3-0.1-4.4-0.3l0.2-1.9c0.5,0,1.6,0,3.4,0
		c0.7,0,1.3,0,2-0.1c0.3-0.1,0.5-0.3,0.5-0.6c0-0.1,0-0.1,0-0.2c0-0.1,0-0.1-0.1-0.2c0,0,0-0.1-0.1-0.1c0,0-0.1-0.1-0.1-0.1
		c-0.1,0-0.1-0.1-0.1-0.1c-0.1,0-0.1-0.1-0.2-0.1c-0.1,0-0.2-0.1-0.2-0.1s-0.1,0-0.3-0.1C239.8,535.9,239.7,535.8,239.6,535.8z"/>
</g>
<g>
	<path d="M168.5,578.3h-4.7l-1,3.6h-3.1l4-13c0-0.2,0.2-0.4,0.4-0.6c0.2-0.1,0.4-0.2,0.7-0.2h2.9c0.5,0,1,0.3,1.1,0.8l4,13h-3.1
		L168.5,578.3z M167.8,575.9l-1.2-4.2c-0.2-0.7-0.3-1.1-0.3-1.3h-0.5c0,0.1-0.1,0.3-0.1,0.6s-0.1,0.5-0.2,0.7l-1.2,4.2H167.8z"/>
	<path d="M183.2,567.9v14h-2.3l-0.2-1.4c-0.9,1.1-2.3,1.7-3.8,1.7c-1.1,0.1-2.1-0.4-2.7-1.3c-0.6-1.2-0.9-2.6-0.8-3.9
		c-0.1-1.4,0.2-2.8,0.9-4c0.7-0.8,1.8-1.2,2.9-1.1c1.1,0,2.2,0.3,3.2,0.9c-0.1-0.7-0.1-1.4-0.1-2.1v-2.7L183.2,567.9z M180.3,578.9
		v-4.6c-0.7-0.2-1.4-0.3-2.1-0.4c-0.5-0.1-1,0.1-1.4,0.6c-0.5,1.5-0.5,3.1,0,4.6c0.3,0.4,0.8,0.6,1.3,0.6c0.4,0,0.7,0,1.1-0.2
		C179.5,579.4,179.9,579.2,180.3,578.9L180.3,578.9z"/>
	<path d="M195.1,567.9v14h-2.3l-0.2-1.4c-0.9,1.1-2.3,1.7-3.8,1.7c-1.1,0.1-2.1-0.4-2.7-1.3c-0.6-1.2-0.9-2.6-0.8-3.9
		c-0.1-1.4,0.2-2.8,0.9-4c0.7-0.8,1.8-1.2,2.9-1.1c1.1,0,2.2,0.3,3.2,0.9c-0.1-0.7-0.1-1.4-0.1-2.1v-2.7L195.1,567.9z M192.2,578.9
		v-4.6c-0.7-0.2-1.4-0.3-2.1-0.4c-0.5-0.1-1,0.1-1.4,0.6c-0.5,1.5-0.5,3.1,0,4.6c0.3,0.4,0.8,0.6,1.3,0.6c0.4,0,0.7,0,1.1-0.2
		C191.4,579.4,191.8,579.2,192.2,578.9L192.2,578.9z"/>
	<path d="M204.6,571.8l-0.3,2.7h-0.8c-1,0.1-2.1,0.3-3,0.7v6.7h-3V572h2.3l0.3,1.4c1.1-1,2.5-1.6,4-1.7L204.6,571.8z"/>
	<path d="M212.2,578h-3.6c0,0.6,0.2,1.1,0.6,1.5c0.5,0.3,1.1,0.4,1.7,0.4c1.2,0,2.5-0.1,3.7-0.2l0.3,1.8c-1.4,0.6-2.8,0.8-4.3,0.7
		c-1.4,0.1-2.9-0.3-4-1.2c-0.9-1.1-1.3-2.5-1.2-4c0-1.9,0.4-3.3,1.1-4.1c1.1-0.9,2.5-1.3,3.9-1.2c1.2-0.1,2.5,0.2,3.6,0.8
		c0.8,0.6,1.2,1.6,1.1,2.6c0.1,0.8-0.2,1.5-0.7,2.1C213.8,577.8,213,578,212.2,578z M208.6,576.2h2.8c0.3,0,0.5-0.1,0.7-0.3
		c0.1-0.2,0.2-0.5,0.2-0.8c0-0.4-0.1-0.7-0.4-1c-0.4-0.2-0.9-0.3-1.3-0.3c-0.6-0.1-1.1,0.1-1.6,0.5
		C208.7,574.9,208.5,575.5,208.6,576.2z"/>
	<path d="M221.5,578.2l-2.5-0.7c-0.7-0.2-1.4-0.5-1.9-1.1c-0.4-0.6-0.6-1.2-0.5-1.9c-0.1-0.8,0.3-1.7,0.9-2.2c1-0.5,2.1-0.7,3.2-0.6
		c1.5,0,3.1,0.1,4.6,0.4l-0.2,1.9c-1.7,0-2.9,0-3.8,0c-0.5,0-0.8,0-1,0c-0.2,0-0.4,0-0.5,0.1c-0.2,0-0.3,0.1-0.3,0.2
		c0,0.1-0.1,0.3-0.1,0.4c0,0.1,0,0.1,0,0.2c0,0.1,0,0.1,0.1,0.1c0,0,0,0.1,0.1,0.1c0,0,0.1,0.1,0.1,0.1c0,0,0.1,0.1,0.1,0.1
		c0,0,0.1,0,0.2,0.1c0.1,0,0.1,0.1,0.2,0.1c0,0,0.1,0,0.3,0.1c0.1,0,0.2,0.1,0.3,0.1l2.5,0.7c0.7,0.2,1.4,0.5,1.9,1
		c0.4,0.5,0.6,1.2,0.6,1.9c0.1,0.9-0.3,1.8-1,2.4c-1.1,0.5-2.3,0.7-3.5,0.6c-1.5,0-3-0.1-4.4-0.3l0.2-1.9c0.5,0,1.6,0,3.4,0
		c0.7,0,1.3,0,2-0.1c0.3-0.1,0.5-0.3,0.5-0.6c0-0.1,0-0.1,0-0.2c0-0.1,0-0.1-0.1-0.2c0,0,0-0.1-0.1-0.1c0,0-0.1-0.1-0.1-0.1
		c-0.1,0-0.1-0.1-0.1-0.1c-0.1,0-0.1-0.1-0.2-0.1c-0.1,0-0.2-0.1-0.2-0.1s-0.1,0-0.3-0.1C221.7,578.3,221.6,578.3,221.5,578.2z"/>
	<path d="M232,578.2l-2.5-0.7c-0.7-0.2-1.4-0.5-1.9-1.1c-0.4-0.6-0.6-1.2-0.5-1.9c-0.1-0.8,0.3-1.7,0.9-2.2c1-0.5,2.1-0.7,3.2-0.6
		c1.5,0,3.1,0.1,4.6,0.4l-0.2,1.9c-1.7,0-2.9,0-3.8,0c-0.5,0-0.8,0-1,0c-0.2,0-0.4,0-0.5,0.1c-0.2,0-0.3,0.1-0.3,0.2
		c0,0.1-0.1,0.3-0.1,0.4c0,0.1,0,0.1,0,0.2c0,0.1,0,0.1,0.1,0.1c0,0,0,0.1,0.1,0.1c0,0,0.1,0.1,0.1,0.1c0,0,0.1,0.1,0.1,0.1
		c0,0,0.1,0,0.2,0.1c0.1,0,0.1,0.1,0.2,0.1c0,0,0.1,0,0.3,0.1c0.1,0,0.2,0.1,0.3,0.1l2.5,0.7c0.7,0.2,1.4,0.5,1.9,1
		c0.4,0.5,0.6,1.2,0.6,1.9c0.1,0.9-0.3,1.8-1,2.4c-1.1,0.5-2.3,0.7-3.5,0.6c-1.5,0-3-0.1-4.4-0.3l0.2-1.9c0.5,0,1.6,0,3.4,0
		c0.7,0,1.3,0,2-0.1c0.3-0.1,0.5-0.3,0.5-0.6c0-0.1,0-0.1,0-0.2c0-0.1,0-0.1-0.1-0.2c0,0,0-0.1-0.1-0.1c0,0-0.1-0.1-0.1-0.1
		c-0.1,0-0.1-0.1-0.1-0.1c-0.1,0-0.1-0.1-0.2-0.1c-0.1,0-0.2-0.1-0.2-0.1s-0.1,0-0.3-0.1C232.2,578.3,232.1,578.3,232,578.2z"/>
	<path d="M245.5,567.9v3.1c0,0.8-0.1,1.6-0.3,2.3c0.9-1,2.2-1.6,3.5-1.6c1.1-0.1,2.1,0.4,2.8,1.2c0.7,1.2,1,2.6,0.9,3.9
		c0.1,1.4-0.3,2.7-1,3.9c-0.7,0.9-2,1.4-3.8,1.4c-0.9,0-1.8-0.1-2.7-0.2c-0.8-0.1-1.6-0.3-2.3-0.6v-13.5H245.5z M245.5,575v4.8
		c0.7,0.1,1.3,0.2,2,0.2c0.6,0,1.1-0.2,1.4-0.7c0.3-0.7,0.5-1.6,0.4-2.4c0.1-0.8-0.1-1.5-0.3-2.2c-0.3-0.4-0.9-0.6-1.4-0.6
		C246.8,574.2,246.1,574.5,245.5,575L245.5,575z"/>
	<path d="M263.7,572v9.9h-2.3l-0.2-1.4c-1.1,1-2.6,1.6-4.1,1.6c-1.3,0.2-2.6-0.7-2.8-2.1c0-0.2,0-0.5,0-0.7V572h3v6.5
		c0,0.3,0,0.6,0.2,0.9c0.2,0.2,0.5,0.3,0.8,0.3c0.9-0.1,1.7-0.4,2.5-0.8V572L263.7,572z"/>
	<path d="M270.5,578.2l-2.5-0.7c-0.7-0.2-1.4-0.5-1.9-1.1c-0.4-0.6-0.6-1.2-0.5-1.9c-0.1-0.8,0.3-1.7,1-2.2c1-0.5,2.1-0.7,3.2-0.6
		c1.5,0,3.1,0.1,4.6,0.4l-0.2,1.9c-1.7,0-2.9,0-3.8,0c-0.5,0-0.8,0-1,0c-0.2,0-0.4,0-0.5,0.1c-0.2,0-0.3,0.1-0.3,0.2
		c0,0.1-0.1,0.3-0.1,0.4c0,0.1,0,0.1,0,0.2c0,0.1,0,0.1,0,0.1c0,0,0,0.1,0.1,0.1c0,0,0.1,0.1,0.1,0.1c0,0,0.1,0.1,0.1,0.1
		c0,0,0.1,0,0.2,0.1c0.1,0,0.1,0.1,0.2,0.1c0,0,0.1,0,0.3,0.1c0.1,0,0.2,0.1,0.3,0.1l2.5,0.7c0.7,0.2,1.4,0.5,1.9,1
		c0.4,0.5,0.6,1.2,0.6,1.9c0.1,0.9-0.3,1.8-1,2.4c-1.1,0.5-2.3,0.7-3.5,0.6c-1.5,0-3-0.1-4.4-0.3l0.2-1.9c0.5,0,1.6,0,3.4,0
		c0.7,0,1.3,0,2-0.1c0.3-0.1,0.5-0.3,0.5-0.6c0-0.1,0-0.1,0-0.2c0-0.1,0-0.1,0-0.2c0,0,0-0.1-0.1-0.1c0,0-0.1-0.1-0.1-0.1
		c-0.1,0-0.1-0.1-0.1-0.1c-0.1,0-0.1-0.1-0.2-0.1c-0.1,0-0.2-0.1-0.2-0.1s-0.1,0-0.3-0.1C270.7,578.3,270.6,578.3,270.5,578.2z"/>
</g>
<g>
	<path d="M167.3,623l0.3,2.3c-1.4,0.4-2.9,0.6-4.4,0.6c-2.1,0-3.6-0.5-4.5-1.6c-0.9-1.1-1.3-2.9-1.3-5.5c0-2.6,0.4-4.5,1.3-5.5
		c0.9-1.1,2.4-1.6,4.5-1.6c1.4,0,2.8,0.1,4.1,0.5l-0.3,2.3c-1.1-0.1-2.4-0.1-3.9-0.1c-0.8-0.1-1.6,0.3-2.1,1c-0.7,2.3-0.7,4.8,0,7.1
		c0.5,0.7,1.2,1,2.1,0.9C164.5,623.2,165.9,623.1,167.3,623z"/>
	<path d="M174,615.4c1.4-0.1,2.8,0.3,3.9,1.2c0.8,0.8,1.1,2.1,1.1,4s-0.4,3.2-1.1,4c-1.1,0.9-2.5,1.3-3.9,1.2
		c-1.9,0-3.2-0.4-3.9-1.2s-1.1-2.1-1.1-4c0-1.9,0.4-3.3,1.1-4C170.8,615.8,172.1,615.4,174,615.4z M174,617.6
		c-0.6-0.1-1.2,0.1-1.6,0.6c-0.3,0.8-0.5,1.6-0.4,2.4c-0.1,0.8,0.1,1.6,0.4,2.4c0.4,0.5,1,0.7,1.6,0.6c0.6,0.1,1.2-0.2,1.6-0.6
		c0.3-0.7,0.5-1.6,0.4-2.4c0.1-0.8-0.1-1.6-0.4-2.4C175.2,617.8,174.6,617.6,174,617.6L174,617.6z"/>
	<path d="M183.5,615.7l0.2,1.5c1.2-1.1,2.7-1.7,4.2-1.7c0.7-0.1,1.5,0.2,2.1,0.7c0.5,0.6,0.8,1.3,0.7,2v7.4h-2.9v-6.5
		c0-0.3,0-0.6-0.2-0.9c-0.2-0.2-0.5-0.3-0.8-0.2c-1,0.1-1.9,0.4-2.7,0.9v6.7h-3v-9.9L183.5,615.7z"/>
	<path d="M196.9,617.7v4.7c0,0.3,0.1,0.6,0.2,0.8c0.2,0.2,0.5,0.3,0.8,0.2h1.3l0.3,2.1c-0.9,0.3-1.8,0.4-2.8,0.4
		c-0.8,0-1.5-0.2-2.1-0.8c-0.5-0.6-0.8-1.3-0.7-2.1v-5.3h-1.7v-1.9l1.7-0.1v-2.8h2.9v2.8h2.7v2L196.9,617.7z"/>
	<path d="M208.3,615.4l-0.3,2.7h-0.8c-1,0.1-2.1,0.3-3,0.7v6.7h-3v-9.9h2.3l0.3,1.4c1.1-1,2.5-1.6,4-1.7L208.3,615.4z"/>
	<path d="M214.3,615.4c1.4-0.1,2.8,0.3,3.9,1.2c0.8,0.8,1.2,2.1,1.1,4c0,1.9-0.4,3.2-1.1,4c-1.1,0.9-2.5,1.3-3.9,1.2
		c-1.9,0-3.2-0.4-3.9-1.2c-0.8-0.8-1.1-2.1-1.1-4c0-1.9,0.4-3.3,1.1-4C211.1,615.8,212.4,615.4,214.3,615.4z M214.3,617.6
		c-0.6-0.1-1.2,0.1-1.6,0.6c-0.3,0.8-0.5,1.6-0.4,2.4c-0.1,0.8,0.1,1.6,0.4,2.4c0.4,0.5,1,0.7,1.6,0.6c0.6,0.1,1.2-0.2,1.6-0.6
		c0.3-0.7,0.5-1.6,0.4-2.4c0.1-0.8-0.1-1.6-0.4-2.4C215.5,617.8,214.9,617.6,214.3,617.6L214.3,617.6z"/>
	<path d="M224.3,611.5v10.8c0,0.7,0.4,1,1.1,1h0.8l0.3,2.1c-0.7,0.3-1.6,0.4-2.4,0.4c-0.8,0-1.5-0.2-2.1-0.7c-0.5-0.5-0.8-1.3-0.8-2
		v-11.5H224.3z"/>
	<path d="M234.8,611.5v3.1c0,0.8-0.1,1.6-0.3,2.3c0.9-1,2.2-1.6,3.5-1.6c1.1-0.1,2.1,0.4,2.8,1.2c0.7,1.2,1,2.6,0.9,3.9
		c0.1,1.4-0.3,2.7-1,3.9c-0.7,0.9-2,1.4-3.8,1.4c-0.9,0-1.8-0.1-2.7-0.2c-0.8-0.1-1.6-0.3-2.3-0.6v-13.5H234.8z M234.7,618.6v4.8
		c0.7,0.1,1.3,0.2,2,0.2c0.6,0,1.1-0.2,1.4-0.7c0.3-0.7,0.5-1.6,0.4-2.4c0.1-0.8-0.1-1.5-0.3-2.2c-0.3-0.4-0.9-0.6-1.4-0.6
		C236.1,617.8,235.3,618.1,234.7,618.6L234.7,618.6z"/>
	<path d="M253,615.7v9.9h-2.3l-0.2-1.4c-1.1,1-2.6,1.6-4.1,1.6c-1.3,0.2-2.6-0.7-2.8-2.1c0-0.2,0-0.5,0-0.7v-7.4h3v6.5
		c0,0.3,0,0.6,0.2,0.9c0.2,0.2,0.5,0.3,0.8,0.3c0.9-0.1,1.7-0.4,2.5-0.8v-6.8L253,615.7z"/>
	<path d="M259.8,621.9l-2.5-0.7c-0.7-0.2-1.4-0.5-1.9-1.1c-0.4-0.6-0.6-1.2-0.5-1.9c-0.1-0.8,0.3-1.7,0.9-2.2c1-0.5,2.1-0.7,3.2-0.6
		c1.5,0,3.1,0.1,4.6,0.4l-0.2,1.9c-1.7,0-2.9,0-3.8,0c-0.5,0-0.8,0-1,0c-0.2,0-0.4,0-0.5,0.1c-0.2,0-0.3,0.1-0.3,0.2
		c0,0.1-0.1,0.3-0.1,0.4c0,0.1,0,0.1,0,0.2c0,0.1,0,0.1,0,0.1c0,0,0,0.1,0.1,0.1c0,0,0.1,0.1,0.1,0.1c0,0,0.1,0.1,0.1,0.1
		c0,0,0.1,0,0.2,0.1c0.1,0,0.1,0.1,0.2,0.1c0,0,0.1,0,0.3,0.1c0.1,0,0.2,0.1,0.3,0.1l2.5,0.7c0.7,0.2,1.4,0.5,1.9,1
		c0.4,0.5,0.6,1.2,0.6,1.9c0.1,0.9-0.3,1.8-1,2.4c-1.1,0.5-2.3,0.7-3.5,0.6c-1.5,0-3-0.1-4.4-0.3l0.2-1.9c0.5,0,1.6,0,3.4,0
		c0.7,0,1.3,0,2-0.1c0.3-0.1,0.5-0.3,0.5-0.6c0-0.1,0-0.1,0-0.2c0-0.1,0-0.1,0-0.2c0,0,0-0.1-0.1-0.1c0,0-0.1-0.1-0.1-0.1
		c-0.1,0-0.1-0.1-0.1-0.1c-0.1,0-0.1-0.1-0.2-0.1c-0.1,0-0.2-0.1-0.2-0.1s-0.1,0-0.3-0.1C260,622,259.9,621.9,259.8,621.9z"/>
</g>
<g>
	<path d="M862.6,116h-4.3l-0.9,3.3h-2.9l3.6-11.9c0-0.2,0.2-0.4,0.3-0.5c0.2-0.1,0.4-0.2,0.6-0.2h2.6c0.5,0,0.9,0.3,1,0.7l3.6,11.9
		h-2.8L862.6,116z M862,113.8l-1.1-3.9c-0.1-0.6-0.2-1-0.3-1.2h-0.5c0,0.1-0.1,0.3-0.1,0.6s-0.1,0.5-0.1,0.6l-1.1,3.9L862,113.8z"/>
	<path d="M876.1,106.5v12.8H874l-0.2-1.3c-0.8,1-2.1,1.6-3.4,1.5c-1,0.1-1.9-0.4-2.4-1.2c-0.6-1.1-0.8-2.4-0.8-3.6
		c-0.1-1.3,0.2-2.6,0.8-3.6c0.7-0.7,1.6-1.1,2.6-1c1,0,2.1,0.2,2.9,0.8c-0.1-0.7-0.1-1.3-0.1-1.9v-2.5L876.1,106.5z M873.4,116.5
		v-4.2c-0.6-0.2-1.3-0.3-1.9-0.3c-0.5-0.1-1,0.1-1.3,0.5c-0.3,0.7-0.4,1.4-0.3,2.1c-0.1,0.7,0.1,1.4,0.3,2.1
		c0.3,0.4,0.7,0.6,1.2,0.5c0.3,0,0.7,0,1-0.2C872.7,117,873.1,116.8,873.4,116.5L873.4,116.5z"/>
	<path d="M887,106.5v12.8h-2.1l-0.2-1.3c-0.8,1-2.1,1.6-3.4,1.5c-1,0.1-1.9-0.4-2.4-1.2c-0.6-1.1-0.8-2.4-0.8-3.6
		c-0.1-1.3,0.2-2.6,0.8-3.6c0.7-0.7,1.6-1.1,2.6-1c1,0,2.1,0.2,2.9,0.8c-0.1-0.7-0.1-1.3-0.1-1.9v-2.5L887,106.5z M884.3,116.5v-4.2
		c-0.6-0.2-1.3-0.3-1.9-0.3c-0.5-0.1-1,0.1-1.3,0.5c-0.3,0.7-0.4,1.4-0.3,2.1c-0.1,0.7,0.1,1.4,0.3,2.1c0.3,0.4,0.7,0.6,1.2,0.5
		c0.3,0,0.7,0,1-0.2C883.6,117,883.9,116.8,884.3,116.5z"/>
	<path d="M895.7,110l-0.3,2.5h-0.7c-0.9,0.1-1.9,0.3-2.8,0.6v6.2h-2.7v-9h2.1l0.2,1.3c1-0.9,2.3-1.5,3.7-1.6L895.7,110z"/>
	<path d="M902.6,115.7h-3.3c0,0.5,0.2,1,0.6,1.3c0.5,0.3,1,0.4,1.5,0.3c1.1,0,2.2-0.1,3.4-0.2l0.3,1.7c-1.2,0.5-2.6,0.7-3.9,0.7
		c-1.3,0.1-2.6-0.3-3.6-1.1c-0.8-1-1.2-2.3-1.1-3.6c-0.1-1.3,0.2-2.7,1.1-3.7c1-0.8,2.3-1.2,3.5-1.1c1.1-0.1,2.3,0.2,3.3,0.8
		c0.7,0.6,1.1,1.5,1,2.4c0.1,0.7-0.2,1.4-0.6,1.9C904.1,115.5,903.4,115.7,902.6,115.7z M899.3,114h2.6c0.2,0,0.5-0.1,0.7-0.2
		c0.1-0.2,0.2-0.5,0.2-0.7c0-0.3-0.1-0.7-0.3-0.9c-0.4-0.2-0.8-0.3-1.2-0.2c-0.5-0.1-1,0.1-1.4,0.4
		C899.4,112.9,899.3,113.5,899.3,114L899.3,114z"/>
	<path d="M911.1,115.9l-2.3-0.6c-0.7-0.1-1.3-0.5-1.7-1c-0.3-0.5-0.5-1.1-0.5-1.7c-0.1-0.8,0.3-1.5,0.9-2c0.9-0.5,1.9-0.7,3-0.6
		c1.4,0,2.8,0.1,4.2,0.3l-0.2,1.7c-1.5,0-2.7,0-3.5,0c-0.4,0-0.7,0-0.9,0c-0.2,0-0.3,0-0.5,0.1c-0.2,0-0.3,0.1-0.3,0.2
		c0,0.1-0.1,0.2-0.1,0.4c0,0.1,0,0.1,0,0.2c0,0,0,0.1,0,0.1c0,0,0,0.1,0.1,0.1c0,0,0.1,0.1,0.1,0.1c0,0,0.1,0,0.1,0.1
		c0,0,0.1,0,0.2,0.1c0.1,0,0.1,0.1,0.2,0.1s0.1,0,0.2,0.1s0.2,0.1,0.3,0.1l2.3,0.6c0.6,0.1,1.2,0.5,1.7,0.9c0.4,0.5,0.6,1.1,0.5,1.7
		c0.1,0.8-0.3,1.7-0.9,2.2c-1,0.5-2.1,0.7-3.2,0.6c-1.4,0-2.7-0.1-4-0.3l0.2-1.8c0.4,0,1.5,0,3.1,0c0.6,0,1.2,0,1.8-0.1
		c0.3-0.1,0.4-0.3,0.4-0.6c0-0.1,0-0.1,0-0.2c0,0,0-0.1,0-0.1c0,0,0-0.1-0.1-0.1c0,0-0.1-0.1-0.1-0.1c-0.1,0-0.1-0.1-0.1-0.1
		c-0.1,0-0.1-0.1-0.2-0.1c-0.1,0-0.2-0.1-0.2-0.1s-0.1,0-0.3-0.1C911.3,116,911.2,116,911.1,115.9z"/>
	<path d="M920.8,115.9l-2.3-0.6c-0.7-0.1-1.3-0.5-1.7-1c-0.3-0.5-0.5-1.1-0.5-1.7c-0.1-0.8,0.3-1.5,0.9-2c0.9-0.5,1.9-0.7,3-0.6
		c1.4,0,2.8,0.1,4.2,0.3l-0.2,1.7c-1.5,0-2.7,0-3.5,0c-0.4,0-0.7,0-0.9,0c-0.2,0-0.3,0-0.5,0.1c-0.2,0-0.3,0.1-0.3,0.2
		c0,0.1-0.1,0.2-0.1,0.4c0,0.1,0,0.1,0,0.2c0,0,0,0.1,0,0.1c0,0,0,0.1,0.1,0.1c0,0,0.1,0.1,0.1,0.1c0,0,0.1,0,0.1,0.1
		c0,0,0.1,0,0.2,0.1c0.1,0,0.1,0.1,0.2,0.1s0.1,0,0.2,0.1s0.2,0.1,0.3,0.1l2.3,0.6c0.6,0.1,1.2,0.5,1.7,0.9c0.4,0.5,0.6,1.1,0.5,1.7
		c0.1,0.8-0.3,1.7-0.9,2.2c-1,0.5-2.1,0.7-3.2,0.6c-1.4,0-2.7-0.1-4-0.3l0.2-1.8c0.4,0,1.5,0,3.1,0c0.6,0,1.2,0,1.8-0.1
		c0.3-0.1,0.4-0.3,0.4-0.6c0-0.1,0-0.1,0-0.2c0,0,0-0.1,0-0.1c0,0,0-0.1-0.1-0.1c0,0-0.1-0.1-0.1-0.1c-0.1,0-0.1-0.1-0.1-0.1
		c-0.1,0-0.1-0.1-0.2-0.1c-0.1,0-0.2-0.1-0.2-0.1s-0.1,0-0.3-0.1C920.9,116,920.9,116,920.8,115.9z"/>
</g>
<g>
	<path d="M949.1,119.3v-12.6c1.7-0.1,3.4-0.2,4.9-0.2c2,0,3.4,0.5,4.2,1.4s1.2,2.6,1.2,5.1c0,2.5-0.4,4.2-1.2,5.1
		c-0.8,0.9-2.2,1.4-4.2,1.4C952.5,119.4,950.8,119.4,949.1,119.3z M951.9,108.7v8.5c0.2,0,0.5,0,1,0c0.5,0,0.8,0,1.1,0
		c0.8,0.1,1.5-0.3,1.9-0.9c0.4-1.1,0.6-2.2,0.5-3.4c0.1-1.2-0.1-2.3-0.5-3.4c-0.4-0.6-1.2-1-1.9-0.9L951.9,108.7z"/>
	<path d="M961.6,112.3l-0.3-1.8c1.6-0.3,3.1-0.4,4.7-0.4c1-0.1,1.9,0.2,2.7,0.7c0.6,0.7,1,1.6,0.9,2.6v6h-2.1l-0.3-1.4
		c-0.8,1-2,1.6-3.3,1.6c-0.8,0-1.5-0.2-2.1-0.7c-0.6-0.5-0.9-1.2-0.8-1.9V116c0-0.6,0.2-1.3,0.7-1.7c0.6-0.4,1.3-0.6,2-0.6h3.2v-0.4
		c0-0.3-0.1-0.7-0.3-0.9c-0.4-0.2-0.8-0.3-1.2-0.2C964.4,112.1,963.1,112.2,961.6,112.3z M963.6,116.2v0.3c0,0.6,0.4,0.9,1.1,0.9
		c0.8,0,1.6-0.3,2.3-0.9v-1.3h-2.4c-0.4-0.1-0.8,0.2-0.9,0.7C963.6,116.1,963.6,116.1,963.6,116.2z"/>
	<path d="M975.3,112.1v4.3c0,0.3,0.1,0.5,0.2,0.7c0.2,0.2,0.5,0.2,0.8,0.2h1.2l0.3,1.9c-0.8,0.3-1.7,0.4-2.5,0.4
		c-0.7,0-1.4-0.2-1.9-0.7c-0.5-0.5-0.7-1.2-0.7-1.9v-4.8H971v-1.7l1.6-0.1v-2.5h2.7v2.5h2.5v1.8L975.3,112.1z"/>
	<path d="M979.5,112.3l-0.3-1.8c1.6-0.3,3.1-0.4,4.7-0.4c1-0.1,1.9,0.2,2.7,0.7c0.6,0.7,1,1.6,0.9,2.6v6h-2.1l-0.3-1.4
		c-0.8,1-2,1.6-3.3,1.6c-0.8,0-1.5-0.2-2.1-0.7c-0.6-0.5-0.9-1.2-0.8-1.9V116c0-0.6,0.2-1.3,0.7-1.7c0.6-0.4,1.3-0.6,2-0.6h3.2v-0.4
		c0-0.3-0.1-0.7-0.3-0.9c-0.4-0.2-0.8-0.3-1.2-0.2C982.3,112.1,981,112.2,979.5,112.3z M981.5,116.2v0.3c0,0.6,0.4,0.9,1.1,0.9
		c0.8,0,1.6-0.3,2.3-0.9v-1.3h-2.4c-0.4-0.1-0.8,0.2-0.9,0.7C981.5,116.1,981.5,116.1,981.5,116.2z"/>
</g>
<polyline class="st14" points="843.1,170 843.1,133.4 1024.7,133.4 1024.7,170 "/>
<polyline class="st14" points="843.1,238.5 843.1,202 1024.7,202 1024.7,238.5 "/>
<polyline class="st14" points="843.1,309.8 843.1,273.2 1024.7,273.2 1024.7,309.8 "/>
<polyline class="st14" points="843.1,379.3 843.1,342.7 1024.7,342.7 1024.7,379.3 "/>
<path class="st14" d="M1024.7,445v-22.3H843.1V445c0,7.9,6.4,14.3,14.3,14.3l0,0h153.1C1018.3,459.3,1024.7,452.9,1024.7,445
	C1024.7,445,1024.7,445,1024.7,445z"/>
<path class="st10" d="M294.2,567.9h737c3.3,0,6,2.7,6,6v4.6c0,3.3-2.7,6-6,6h-737c-3.3,0-6-2.7-6-6v-4.6
	C288.2,570.6,290.9,567.9,294.2,567.9z"/>
<g>
	<path d="M853.6,146.1c1.2-0.1,2.5,0.3,3.3,1.3c0.6,0.9,0.9,2.3,0.9,4.4s-0.3,3.6-0.9,4.4c-1.9,1.7-4.7,1.7-6.6,0
		c-0.6-0.9-0.9-2.3-0.9-4.4s0.3-3.6,0.9-4.4C851.2,146.5,852.4,146,853.6,146.1z M853.6,148c-0.6-0.1-1.2,0.2-1.4,0.8
		c-0.5,2-0.5,4.1,0,6c0.3,0.5,0.9,0.8,1.4,0.8c0.6,0.1,1.2-0.2,1.5-0.8c0.5-2,0.5-4.1,0-6C854.8,148.3,854.2,148,853.6,148
		L853.6,148z"/>
	<path d="M863.7,146.1c1.2-0.1,2.5,0.3,3.3,1.3c0.6,0.9,0.9,2.3,0.9,4.4s-0.3,3.6-0.9,4.4c-1.9,1.7-4.7,1.7-6.6,0
		c-0.6-0.9-0.9-2.3-0.9-4.4s0.3-3.6,0.9-4.4C861.2,146.5,862.5,146,863.7,146.1z M863.7,148c-0.6-0.1-1.2,0.2-1.4,0.8
		c-0.5,2-0.5,4.1,0,6c0.3,0.5,0.9,0.8,1.4,0.8c0.6,0.1,1.2-0.2,1.5-0.8c0.5-2,0.5-4.1,0-6C864.9,148.3,864.3,148,863.7,148
		L863.7,148z"/>
	<path d="M873.8,146.1c1.2-0.1,2.5,0.3,3.3,1.3c0.6,0.9,0.9,2.3,0.9,4.4c0,2.1-0.3,3.6-0.9,4.4c-1.9,1.7-4.7,1.7-6.6,0
		c-0.6-0.9-0.9-2.3-0.9-4.4c0-2.1,0.3-3.6,0.9-4.4C871.3,146.5,872.5,146,873.8,146.1z M873.7,148c-0.6-0.1-1.2,0.2-1.4,0.8
		c-0.5,2-0.5,4.1,0,6c0.3,0.5,0.9,0.8,1.4,0.8c0.6,0.1,1.2-0.2,1.5-0.8c0.5-2,0.5-4.1,0-6C874.9,148.3,874.4,148,873.7,148
		L873.7,148z"/>
	<path d="M883.8,146.1c1.2-0.1,2.5,0.3,3.3,1.3c0.6,0.9,0.9,2.3,0.9,4.4s-0.3,3.6-0.9,4.4c-1.9,1.7-4.7,1.7-6.6,0
		c-0.6-0.9-0.9-2.3-0.9-4.4s0.3-3.6,0.9-4.4C881.4,146.5,882.6,146,883.8,146.1z M883.8,148c-0.6-0.1-1.2,0.2-1.4,0.8
		c-0.5,2-0.5,4.1,0,6c0.3,0.5,0.9,0.8,1.4,0.8c0.6,0.1,1.2-0.2,1.5-0.8c0.5-2,0.5-4.1,0-6C885,148.3,884.4,148,883.8,148L883.8,148z
		"/>
	<path d="M893.9,146.1c1.2-0.1,2.5,0.3,3.3,1.3c0.6,0.9,0.9,2.3,0.9,4.4c0,2.1-0.3,3.6-0.9,4.4c-1.9,1.7-4.7,1.7-6.6,0
		c-0.6-0.9-0.9-2.3-0.9-4.4c0-2.1,0.3-3.6,0.9-4.4C891.4,146.5,892.7,146,893.9,146.1z M893.9,148c-0.6-0.1-1.2,0.2-1.4,0.8
		c-0.5,2-0.5,4.1,0,6c0.3,0.5,0.9,0.8,1.4,0.8c0.6,0.1,1.2-0.2,1.5-0.8c0.5-2,0.5-4.1,0-6C895.1,148.3,894.5,148,893.9,148
		L893.9,148z"/>
	<path d="M904,146.1c1.2-0.1,2.5,0.3,3.3,1.3c0.6,0.9,0.9,2.3,0.9,4.4s-0.3,3.6-0.9,4.4c-1.9,1.7-4.7,1.7-6.6,0
		c-0.6-0.9-0.9-2.3-0.9-4.4s0.3-3.6,0.9-4.4C901.5,146.5,902.7,146,904,146.1z M903.9,148c-0.6-0.1-1.2,0.2-1.4,0.8
		c-0.5,2-0.5,4.1,0,6c0.3,0.5,0.9,0.8,1.4,0.8c0.6,0.1,1.2-0.2,1.5-0.8c0.5-2,0.5-4.1,0-6C905.1,148.3,904.6,148,903.9,148
		L903.9,148z"/>
	<path d="M914,146.1c1.2-0.1,2.5,0.3,3.3,1.3c0.6,0.9,0.9,2.3,0.9,4.4c0,2.1-0.3,3.6-0.9,4.4c-1.9,1.7-4.7,1.7-6.6,0
		c-0.6-0.9-0.9-2.3-0.9-4.4c0-2.1,0.3-3.6,0.9-4.4C911.6,146.5,912.8,146,914,146.1z M914,148c-0.6-0.1-1.2,0.2-1.4,0.8
		c-0.5,2-0.5,4.1,0,6c0.3,0.5,0.9,0.8,1.4,0.8c0.6,0.1,1.2-0.2,1.5-0.8c0.5-2,0.5-4.1,0-6C915.2,148.3,914.6,148,914,148L914,148z"
		/>
	<path d="M924.1,146.1c1.2-0.1,2.5,0.3,3.3,1.3c0.6,0.9,0.9,2.3,0.9,4.4s-0.3,3.6-0.9,4.4c-1.9,1.7-4.7,1.7-6.6,0
		c-0.6-0.9-0.9-2.3-0.9-4.4s0.3-3.6,0.9-4.4C921.6,146.5,922.8,146,924.1,146.1z M924.1,148c-0.6-0.1-1.2,0.2-1.4,0.8
		c-0.5,2-0.5,4.1,0,6c0.3,0.5,0.9,0.8,1.4,0.8c0.6,0.1,1.2-0.2,1.5-0.8c0.5-2,0.5-4.1,0-6C925.3,148.3,924.7,148,924.1,148
		L924.1,148z"/>
</g>
<g>
	<path d="M953.5,146.1c1.2-0.1,2.5,0.3,3.3,1.3c0.6,0.9,0.9,2.3,0.9,4.4c0,2.1-0.3,3.6-0.9,4.4c-1.9,1.7-4.7,1.7-6.6,0
		c-0.6-0.9-0.9-2.3-0.9-4.4c0-2.1,0.3-3.6,0.9-4.4C951,146.5,952.2,146,953.5,146.1z M953.5,148c-0.6-0.1-1.2,0.2-1.4,0.8
		c-0.5,2-0.5,4.1,0,6c0.3,0.5,0.9,0.8,1.4,0.8c0.6,0.1,1.2-0.2,1.5-0.8c0.5-2,0.5-4.1,0-6C954.7,148.3,954.1,148,953.5,148
		L953.5,148z"/>
	<path d="M963.9,157.4h-2.4v-7.8c0-0.4,0-0.8,0.1-1.2l-2.6,0.7l-0.3-1.6l2.8-1.1h2.4L963.9,157.4z"/>
	<path d="M970.7,157.4h-2.4v-7.8c0-0.4,0-0.8,0.1-1.2l-2.6,0.7l-0.3-1.6l2.8-1.1h2.4L970.7,157.4z"/>
	<path d="M977.6,157.4h-2.4v-7.8c0-0.4,0-0.8,0.1-1.2l-2.6,0.7l-0.3-1.6l2.8-1.1h2.4L977.6,157.4z"/>
	<path d="M984.1,146.1c1.2-0.1,2.5,0.3,3.3,1.3c0.6,0.9,0.9,2.3,0.9,4.4c0,2.1-0.3,3.6-0.9,4.4c-1.9,1.7-4.7,1.7-6.6,0
		c-0.6-0.9-0.9-2.3-0.9-4.4c0-2.1,0.3-3.6,0.9-4.4C981.7,146.5,982.9,146,984.1,146.1z M984.1,148c-0.6-0.1-1.2,0.2-1.4,0.8
		c-0.5,2-0.5,4.1,0,6c0.3,0.5,0.9,0.8,1.4,0.8c0.6,0.1,1.2-0.2,1.5-0.8c0.5-2,0.5-4.1,0-6C985.3,148.3,984.7,148,984.1,148
		L984.1,148z"/>
	<path d="M994.2,146.1c1.2-0.1,2.5,0.3,3.3,1.3c0.6,0.9,0.9,2.3,0.9,4.4s-0.3,3.6-0.9,4.4c-1.9,1.7-4.7,1.7-6.6,0
		c-0.6-0.9-0.9-2.3-0.9-4.4s0.3-3.6,0.9-4.4C991.7,146.5,992.9,146,994.2,146.1z M994.2,148c-0.6-0.1-1.2,0.2-1.4,0.8
		c-0.5,2-0.5,4.1,0,6c0.3,0.5,0.9,0.8,1.4,0.8c0.6,0.1,1.2-0.2,1.5-0.8c0.5-2,0.5-4.1,0-6C995.4,148.3,994.8,148,994.2,148
		L994.2,148z"/>
	<path d="M1004.3,146.1c1.2-0.1,2.5,0.3,3.3,1.3c0.6,0.9,0.9,2.3,0.9,4.4s-0.3,3.6-0.9,4.4c-1.9,1.7-4.7,1.7-6.6,0
		c-0.6-0.9-0.9-2.3-0.9-4.4c0-2.1,0.3-3.6,0.9-4.4C1001.8,146.5,1003,146,1004.3,146.1z M1004.2,148c-0.6-0.1-1.2,0.2-1.4,0.8
		c-0.5,2-0.5,4.1,0,6c0.3,0.5,0.9,0.8,1.4,0.8c0.6,0.1,1.2-0.2,1.5-0.8c0.5-2,0.5-4.1,0-6C1005.4,148.3,1004.8,148,1004.2,148
		L1004.2,148z"/>
</g>
<g>
	<path d="M855.2,180.1c1.2-0.1,2.5,0.3,3.3,1.3c0.6,0.9,0.9,2.3,0.9,4.4c0,2.1-0.3,3.6-0.9,4.4c-1.9,1.7-4.7,1.7-6.6,0
		c-0.6-0.9-0.9-2.3-0.9-4.4c0-2.1,0.3-3.6,0.9-4.4C852.8,180.5,854,180,855.2,180.1z M855.2,182c-0.6-0.1-1.2,0.2-1.4,0.8
		c-0.5,2-0.5,4.1,0,6c0.3,0.5,0.9,0.8,1.4,0.8c0.6,0.1,1.2-0.2,1.5-0.8c0.5-2,0.5-4.1,0-6C856.4,182.3,855.8,182,855.2,182
		L855.2,182z"/>
	<path d="M865.3,180.1c1.2-0.1,2.5,0.3,3.3,1.3c0.6,0.9,0.9,2.3,0.9,4.4c0,2.1-0.3,3.6-0.9,4.4c-1.9,1.7-4.7,1.7-6.6,0
		c-0.6-0.9-0.9-2.3-0.9-4.4c0-2.1,0.3-3.6,0.9-4.4C862.8,180.5,864.1,180,865.3,180.1z M865.3,182c-0.6-0.1-1.2,0.2-1.4,0.8
		c-0.5,2-0.5,4.1,0,6c0.3,0.5,0.9,0.8,1.4,0.8c0.6,0.1,1.2-0.2,1.5-0.8c0.5-2,0.5-4.1,0-6C866.5,182.3,865.9,182,865.3,182
		L865.3,182z"/>
	<path d="M875.4,180.1c1.2-0.1,2.5,0.3,3.3,1.3c0.6,0.9,0.9,2.3,0.9,4.4c0,2.1-0.3,3.6-0.9,4.4c-1.9,1.7-4.7,1.7-6.6,0
		c-0.6-0.9-0.9-2.3-0.9-4.4c0-2.1,0.3-3.6,0.9-4.4C872.9,180.5,874.1,180,875.4,180.1z M875.4,182c-0.6-0.1-1.2,0.2-1.4,0.8
		c-0.5,2-0.5,4.1,0,6c0.3,0.5,0.9,0.8,1.4,0.8c0.6,0.1,1.2-0.2,1.5-0.8c0.5-2,0.5-4.1,0-6C876.5,182.3,876,182,875.4,182L875.4,182z
		"/>
	<path d="M885.4,180.1c1.2-0.1,2.5,0.3,3.3,1.3c0.6,0.9,0.9,2.3,0.9,4.4c0,2.1-0.3,3.6-0.9,4.4c-1.9,1.7-4.7,1.7-6.6,0
		c-0.6-0.9-0.9-2.3-0.9-4.4c0-2.1,0.3-3.6,0.9-4.4C883,180.5,884.2,180,885.4,180.1z M885.4,182c-0.6-0.1-1.2,0.2-1.4,0.8
		c-0.5,2-0.5,4.1,0,6c0.3,0.5,0.9,0.8,1.4,0.8c0.6,0.1,1.2-0.2,1.5-0.8c0.5-2,0.5-4.1,0-6C886.6,182.3,886,182,885.4,182L885.4,182z
		"/>
	<path d="M895.5,180.1c1.2-0.1,2.5,0.3,3.3,1.3c0.6,0.9,0.9,2.3,0.9,4.4c0,2.1-0.3,3.6-0.9,4.4c-1.9,1.7-4.7,1.7-6.6,0
		c-0.6-0.9-0.9-2.3-0.9-4.4c0-2.1,0.3-3.6,0.9-4.4C893,180.5,894.3,180,895.5,180.1z M895.5,182c-0.6-0.1-1.2,0.2-1.4,0.8
		c-0.5,2-0.5,4.1,0,6c0.3,0.5,0.9,0.8,1.4,0.8c0.6,0.1,1.2-0.2,1.5-0.8c0.5-2,0.5-4.1,0-6C896.7,182.3,896.1,182,895.5,182
		L895.5,182z"/>
	<path d="M905.6,180.1c1.2-0.1,2.5,0.3,3.3,1.3c0.6,0.9,0.9,2.3,0.9,4.4c0,2.1-0.3,3.6-0.9,4.4c-1.9,1.7-4.7,1.7-6.6,0
		c-0.6-0.9-0.9-2.3-0.9-4.4c0-2.1,0.3-3.6,0.9-4.4C903.1,180.5,904.3,180,905.6,180.1z M905.5,182c-0.6-0.1-1.2,0.2-1.4,0.8
		c-0.5,2-0.5,4.1,0,6c0.3,0.5,0.9,0.8,1.4,0.8c0.6,0.1,1.2-0.2,1.5-0.8c0.5-2,0.5-4.1,0-6C906.7,182.3,906.2,182,905.5,182
		L905.5,182z"/>
	<path d="M915.6,180.1c1.2-0.1,2.5,0.3,3.3,1.3c0.6,0.9,0.9,2.3,0.9,4.4c0,2.1-0.3,3.6-0.9,4.4c-1.9,1.7-4.7,1.7-6.6,0
		c-0.6-0.9-0.9-2.3-0.9-4.4c0-2.1,0.3-3.6,0.9-4.4C913.2,180.5,914.4,180,915.6,180.1z M915.6,182c-0.6-0.1-1.2,0.2-1.4,0.8
		c-0.5,2-0.5,4.1,0,6c0.3,0.5,0.9,0.8,1.4,0.8c0.6,0.1,1.2-0.2,1.5-0.8c0.5-2,0.5-4.1,0-6C916.8,182.3,916.2,182,915.6,182
		L915.6,182z"/>
	<path d="M926,191.4h-2.4v-7.8c0-0.4,0-0.8,0.1-1.2l-2.6,0.7l-0.3-1.6l2.8-1.1h2.4L926,191.4z"/>
</g>
<g>
	<path d="M955.1,180.1c1.2-0.1,2.5,0.3,3.3,1.3c0.6,0.9,0.9,2.3,0.9,4.4c0,2.1-0.3,3.6-0.9,4.4c-1.9,1.7-4.7,1.7-6.6,0
		c-0.6-0.9-0.9-2.3-0.9-4.4c0-2.1,0.3-3.6,0.9-4.4C952.6,180.5,953.8,180,955.1,180.1z M955.1,182c-0.6-0.1-1.2,0.2-1.4,0.8
		c-0.5,2-0.5,4.1,0,6c0.3,0.5,0.9,0.8,1.4,0.8c0.6,0.1,1.2-0.2,1.5-0.8c0.5-2,0.5-4.1,0-6C956.3,182.3,955.7,182,955.1,182
		L955.1,182z"/>
	<path d="M965.1,180.1c1.2-0.1,2.5,0.3,3.3,1.3c0.6,0.9,0.9,2.3,0.9,4.4c0,2.1-0.3,3.6-0.9,4.4c-1.9,1.7-4.7,1.7-6.6,0
		c-0.6-0.9-0.9-2.3-0.9-4.4c0-2.1,0.3-3.6,0.9-4.4C962.7,180.5,963.9,180,965.1,180.1z M965.1,182c-0.6-0.1-1.2,0.2-1.4,0.8
		c-0.5,2-0.5,4.1,0,6c0.3,0.5,0.9,0.8,1.4,0.8c0.6,0.1,1.2-0.2,1.5-0.8c0.5-2,0.5-4.1,0-6C966.3,182.3,965.7,182,965.1,182
		L965.1,182z"/>
	<path d="M975.2,180.1c1.2-0.1,2.5,0.3,3.3,1.3c0.6,0.9,0.9,2.3,0.9,4.4c0,2.1-0.3,3.6-0.9,4.4c-1.9,1.7-4.7,1.7-6.6,0
		c-0.6-0.9-0.9-2.3-0.9-4.4c0-2.1,0.3-3.6,0.9-4.4C972.7,180.5,974,180,975.2,180.1z M975.2,182c-0.6-0.1-1.2,0.2-1.4,0.8
		c-0.5,2-0.5,4.1,0,6c0.3,0.5,0.9,0.8,1.4,0.8c0.6,0.1,1.2-0.2,1.5-0.8c0.5-2,0.5-4.1,0-6C976.4,182.3,975.8,182,975.2,182
		L975.2,182z"/>
	<path d="M985.6,191.4h-2.4v-7.8c0-0.4,0-0.8,0.1-1.2l-2.6,0.7l-0.3-1.6l2.8-1.1h2.4L985.6,191.4z"/>
	<path d="M992.5,191.4H990v-7.8c0-0.4,0-0.8,0.1-1.2l-2.6,0.7l-0.3-1.6l2.8-1.1h2.4L992.5,191.4z"/>
	<path d="M999.3,191.4h-2.4v-7.8c0-0.4,0-0.8,0.1-1.2l-2.6,0.7l-0.3-1.6l2.8-1.1h2.4V191.4z"/>
	<path d="M1006.2,191.4h-2.4v-7.8c0-0.4,0-0.8,0.1-1.2l-2.6,0.7l-0.3-1.6l2.8-1.1h2.4V191.4z"/>
</g>
<g>
	<path d="M855.2,214.1c1.2-0.1,2.5,0.3,3.3,1.3c0.6,0.9,0.9,2.3,0.9,4.4c0,2.1-0.3,3.6-0.9,4.4c-1.9,1.7-4.7,1.7-6.6,0
		c-0.6-0.9-0.9-2.3-0.9-4.4c0-2.1,0.3-3.6,0.9-4.4C852.8,214.5,854,214,855.2,214.1z M855.2,216c-0.6-0.1-1.2,0.2-1.4,0.8
		c-0.5,2-0.5,4.1,0,6c0.3,0.5,0.9,0.8,1.4,0.8c0.6,0.1,1.2-0.2,1.5-0.8c0.5-2,0.5-4.1,0-6C856.4,216.3,855.8,216,855.2,216
		L855.2,216z"/>
	<path d="M865.3,214.1c1.2-0.1,2.5,0.3,3.3,1.3c0.6,0.9,0.9,2.3,0.9,4.4c0,2.1-0.3,3.6-0.9,4.4c-1.9,1.7-4.7,1.7-6.6,0
		c-0.6-0.9-0.9-2.3-0.9-4.4c0-2.1,0.3-3.6,0.9-4.4C862.8,214.5,864.1,214,865.3,214.1z M865.3,216c-0.6-0.1-1.2,0.2-1.4,0.8
		c-0.5,2-0.5,4.1,0,6c0.3,0.5,0.9,0.8,1.4,0.8c0.6,0.1,1.2-0.2,1.5-0.8c0.5-2,0.5-4.1,0-6C866.5,216.3,865.9,216,865.3,216
		L865.3,216z"/>
	<path d="M875.4,214.1c1.2-0.1,2.5,0.3,3.3,1.3c0.6,0.9,0.9,2.3,0.9,4.4c0,2.1-0.3,3.6-0.9,4.4c-1.9,1.7-4.7,1.7-6.6,0
		c-0.6-0.9-0.9-2.3-0.9-4.4c0-2.1,0.3-3.6,0.9-4.4C872.9,214.5,874.1,214,875.4,214.1z M875.4,216c-0.6-0.1-1.2,0.2-1.4,0.8
		c-0.5,2-0.5,4.1,0,6c0.3,0.5,0.9,0.8,1.4,0.8c0.6,0.1,1.2-0.2,1.5-0.8c0.5-2,0.5-4.1,0-6C876.5,216.3,876,216,875.4,216L875.4,216z
		"/>
	<path d="M885.4,214.1c1.2-0.1,2.5,0.3,3.3,1.3c0.6,0.9,0.9,2.3,0.9,4.4c0,2.1-0.3,3.6-0.9,4.4c-1.9,1.7-4.7,1.7-6.6,0
		c-0.6-0.9-0.9-2.3-0.9-4.4c0-2.1,0.3-3.6,0.9-4.4C883,214.5,884.2,214,885.4,214.1z M885.4,216c-0.6-0.1-1.2,0.2-1.4,0.8
		c-0.5,2-0.5,4.1,0,6c0.3,0.5,0.9,0.8,1.4,0.8c0.6,0.1,1.2-0.2,1.5-0.8c0.5-2,0.5-4.1,0-6C886.6,216.3,886,216,885.4,216L885.4,216z
		"/>
	<path d="M895.5,214.1c1.2-0.1,2.5,0.3,3.3,1.3c0.6,0.9,0.9,2.3,0.9,4.4c0,2.1-0.3,3.6-0.9,4.4c-1.9,1.7-4.7,1.7-6.6,0
		c-0.6-0.9-0.9-2.3-0.9-4.4c0-2.1,0.3-3.6,0.9-4.4C893,214.5,894.3,214,895.5,214.1z M895.5,216c-0.6-0.1-1.2,0.2-1.4,0.8
		c-0.5,2-0.5,4.1,0,6c0.3,0.5,0.9,0.8,1.4,0.8c0.6,0.1,1.2-0.2,1.5-0.8c0.5-2,0.5-4.1,0-6C896.7,216.3,896.1,216,895.5,216
		L895.5,216z"/>
	<path d="M905.6,214.1c1.2-0.1,2.5,0.3,3.3,1.3c0.6,0.9,0.9,2.3,0.9,4.4c0,2.1-0.3,3.6-0.9,4.4c-1.9,1.7-4.7,1.7-6.6,0
		c-0.6-0.9-0.9-2.3-0.9-4.4c0-2.1,0.3-3.6,0.9-4.4C903.1,214.5,904.3,214,905.6,214.1z M905.5,216c-0.6-0.1-1.2,0.2-1.4,0.8
		c-0.5,2-0.5,4.1,0,6c0.3,0.5,0.9,0.8,1.4,0.8c0.6,0.1,1.2-0.2,1.5-0.8c0.5-2,0.5-4.1,0-6C906.7,216.3,906.2,216,905.5,216
		L905.5,216z"/>
	<path d="M916,225.4h-2.4v-7.8c0-0.4,0-0.8,0.1-1.2l-2.6,0.7l-0.3-1.6l2.8-1.1h2.4L916,225.4z"/>
	<path d="M922.5,214.1c1.2-0.1,2.5,0.3,3.3,1.3c0.6,0.9,0.9,2.3,0.9,4.4c0,2.1-0.3,3.6-0.9,4.4c-1.9,1.7-4.7,1.7-6.6,0
		c-0.6-0.9-0.9-2.3-0.9-4.4c0-2.1,0.3-3.6,0.9-4.4C920,214.5,921.2,214,922.5,214.1z M922.5,216c-0.6-0.1-1.2,0.2-1.4,0.8
		c-0.5,2-0.5,4.1,0,6c0.3,0.5,0.9,0.8,1.4,0.8c0.6,0.1,1.2-0.2,1.5-0.8c0.5-2,0.5-4.1,0-6C923.7,216.3,923.1,216,922.5,216
		L922.5,216z"/>
</g>
<g>
	<path d="M953.5,214.1c1.2-0.1,2.5,0.3,3.3,1.3c0.6,0.9,0.9,2.3,0.9,4.4c0,2.1-0.3,3.6-0.9,4.4c-1.9,1.7-4.7,1.7-6.6,0
		c-0.6-0.9-0.9-2.3-0.9-4.4c0-2.1,0.3-3.6,0.9-4.4C951,214.5,952.2,214,953.5,214.1z M953.5,216c-0.6-0.1-1.2,0.2-1.4,0.8
		c-0.5,2-0.5,4.1,0,6c0.3,0.5,0.9,0.8,1.4,0.8c0.6,0.1,1.2-0.2,1.5-0.8c0.5-2,0.5-4.1,0-6C954.7,216.3,954.1,216,953.5,216
		L953.5,216z"/>
	<path d="M963.9,225.4h-2.4v-7.8c0-0.4,0-0.8,0.1-1.2l-2.6,0.7l-0.3-1.6l2.8-1.1h2.4L963.9,225.4z"/>
	<path d="M970.4,214.1c1.2-0.1,2.5,0.3,3.3,1.3c0.6,0.9,0.9,2.3,0.9,4.4c0,2.1-0.3,3.6-0.9,4.4c-1.9,1.7-4.7,1.7-6.6,0
		c-0.6-0.9-0.9-2.3-0.9-4.4c0-2.1,0.3-3.6,0.9-4.4C967.9,214.5,969.2,214,970.4,214.1z M970.4,216c-0.6-0.1-1.2,0.2-1.4,0.8
		c-0.5,2-0.5,4.1,0,6c0.3,0.5,0.9,0.8,1.4,0.8c0.6,0.1,1.2-0.2,1.5-0.8c0.5-2,0.5-4.1,0-6C971.6,216.3,971,216,970.4,216L970.4,216z
		"/>
	<path d="M980.8,225.4h-2.4v-7.8c0-0.4,0-0.8,0.1-1.2l-2.6,0.7l-0.3-1.6l2.8-1.1h2.4V225.4z"/>
	<path d="M987.3,214.1c1.2-0.1,2.5,0.3,3.3,1.3c0.6,0.9,0.9,2.3,0.9,4.4c0,2.1-0.3,3.6-0.9,4.4c-1.9,1.7-4.7,1.7-6.6,0
		c-0.6-0.9-0.9-2.3-0.9-4.4c0-2.1,0.3-3.6,0.9-4.4C984.9,214.5,986.1,214,987.3,214.1z M987.3,216c-0.6-0.1-1.2,0.2-1.4,0.8
		c-0.5,2-0.5,4.1,0,6c0.3,0.5,0.9,0.8,1.4,0.8c0.6,0.1,1.2-0.2,1.5-0.8c0.5-2,0.5-4.1,0-6C988.5,216.3,987.9,216,987.3,216
		L987.3,216z"/>
	<path d="M997.7,225.4h-2.4v-7.8c0-0.4,0-0.8,0.1-1.2l-2.6,0.7l-0.3-1.6l2.8-1.1h2.4L997.7,225.4z"/>
	<path d="M1004.3,214.1c1.2-0.1,2.5,0.3,3.3,1.3c0.6,0.9,0.9,2.3,0.9,4.4c0,2.1-0.3,3.6-0.9,4.4c-1.9,1.7-4.7,1.7-6.6,0
		c-0.6-0.9-0.9-2.3-0.9-4.4c0-2.1,0.3-3.6,0.9-4.4C1001.8,214.5,1003,214,1004.3,214.1z M1004.2,216c-0.6-0.1-1.2,0.2-1.4,0.8
		c-0.5,2-0.5,4.1,0,6c0.3,0.5,0.9,0.8,1.4,0.8c0.6,0.1,1.2-0.2,1.5-0.8c0.5-2,0.5-4.1,0-6C1005.4,216.3,1004.8,216,1004.2,216
		L1004.2,216z"/>
</g>
<g>
	<path d="M856.8,250.1c1.2-0.1,2.5,0.3,3.3,1.3c0.6,0.9,0.9,2.3,0.9,4.4c0,2.1-0.3,3.6-0.9,4.4c-1.9,1.7-4.7,1.7-6.6,0
		c-0.6-0.9-0.9-2.3-0.9-4.4c0-2.1,0.3-3.6,0.9-4.4C854.4,250.5,855.6,250,856.8,250.1z M856.8,252c-0.6-0.1-1.2,0.2-1.4,0.8
		c-0.5,2-0.5,4.1,0,6c0.3,0.5,0.9,0.8,1.4,0.8c0.6,0.1,1.2-0.2,1.5-0.8c0.5-2,0.5-4.1,0-6C858,252.3,857.4,252,856.8,252L856.8,252z
		"/>
	<path d="M866.9,250.1c1.2-0.1,2.5,0.3,3.3,1.3c0.6,0.9,0.9,2.3,0.9,4.4c0,2.1-0.3,3.6-0.9,4.4c-1.9,1.7-4.7,1.7-6.6,0
		c-0.6-0.9-0.9-2.3-0.9-4.4c0-2.1,0.3-3.6,0.9-4.4C864.4,250.5,865.7,250,866.9,250.1z M866.9,252c-0.6-0.1-1.2,0.2-1.4,0.8
		c-0.5,2-0.5,4.1,0,6c0.3,0.5,0.9,0.8,1.4,0.8c0.6,0.1,1.2-0.2,1.5-0.8c0.5-2,0.5-4.1,0-6C868.1,252.3,867.5,252,866.9,252
		L866.9,252z"/>
	<path d="M877,250.1c1.2-0.1,2.5,0.3,3.3,1.3c0.6,0.9,0.9,2.3,0.9,4.4c0,2.1-0.3,3.6-0.9,4.4c-1.9,1.7-4.7,1.7-6.6,0
		c-0.6-0.9-0.9-2.3-0.9-4.4c0-2.1,0.3-3.6,0.9-4.4C874.5,250.5,875.7,250,877,250.1z M877,252c-0.6-0.1-1.2,0.2-1.4,0.8
		c-0.5,2-0.5,4.1,0,6c0.3,0.5,0.9,0.8,1.4,0.8c0.6,0.1,1.2-0.2,1.5-0.8c0.5-2,0.5-4.1,0-6C878.1,252.3,877.6,252,877,252L877,252z"
		/>
	<path d="M887,250.1c1.2-0.1,2.5,0.3,3.3,1.3c0.6,0.9,0.9,2.3,0.9,4.4c0,2.1-0.3,3.6-0.9,4.4c-1.9,1.7-4.7,1.7-6.6,0
		c-0.6-0.9-0.9-2.3-0.9-4.4c0-2.1,0.3-3.6,0.9-4.4C884.6,250.5,885.8,250,887,250.1z M887,252c-0.6-0.1-1.2,0.2-1.4,0.8
		c-0.5,2-0.5,4.1,0,6c0.3,0.5,0.9,0.8,1.4,0.8c0.6,0.1,1.2-0.2,1.5-0.8c0.5-2,0.5-4.1,0-6C888.2,252.3,887.6,252,887,252L887,252z"
		/>
	<path d="M897.1,250.1c1.2-0.1,2.5,0.3,3.3,1.3c0.6,0.9,0.9,2.3,0.9,4.4c0,2.1-0.3,3.6-0.9,4.4c-1.9,1.7-4.7,1.7-6.6,0
		c-0.6-0.9-0.9-2.3-0.9-4.4c0-2.1,0.3-3.6,0.9-4.4C894.6,250.5,895.9,250,897.1,250.1z M897.1,252c-0.6-0.1-1.2,0.2-1.4,0.8
		c-0.5,2-0.5,4.1,0,6c0.3,0.5,0.9,0.8,1.4,0.8c0.6,0.1,1.2-0.2,1.5-0.8c0.5-2,0.5-4.1,0-6C898.3,252.3,897.7,252,897.1,252
		L897.1,252z"/>
	<path d="M907.2,250.1c1.2-0.1,2.5,0.3,3.3,1.3c0.6,0.9,0.9,2.3,0.9,4.4c0,2.1-0.3,3.6-0.9,4.4c-1.9,1.7-4.7,1.7-6.6,0
		c-0.6-0.9-0.9-2.3-0.9-4.4c0-2.1,0.3-3.6,0.9-4.4C904.7,250.5,905.9,250,907.2,250.1z M907.1,252c-0.6-0.1-1.2,0.2-1.4,0.8
		c-0.5,2-0.5,4.1,0,6c0.3,0.5,0.9,0.8,1.4,0.8c0.6,0.1,1.2-0.2,1.5-0.8c0.5-2,0.5-4.1,0-6C908.3,252.3,907.8,252,907.1,252
		L907.1,252z"/>
	<path d="M917.6,261.4h-2.4v-7.8c0-0.4,0-0.8,0.1-1.2l-2.6,0.7l-0.3-1.6l2.8-1.1h2.4L917.6,261.4z"/>
	<path d="M924.4,261.4H922v-7.8c0-0.4,0-0.8,0.1-1.2l-2.6,0.7l-0.3-1.6l2.8-1.1h2.4V261.4z"/>
</g>
<g>
	<path d="M855.2,286.1c1.2-0.1,2.5,0.3,3.3,1.3c0.6,0.9,0.9,2.3,0.9,4.4c0,2.1-0.3,3.6-0.9,4.4c-1.9,1.7-4.7,1.7-6.6,0
		c-0.6-0.9-0.9-2.3-0.9-4.4c0-2.1,0.3-3.6,0.9-4.4C852.8,286.5,854,286,855.2,286.1z M855.2,288c-0.6-0.1-1.2,0.2-1.4,0.8
		c-0.5,2-0.5,4.1,0,6c0.3,0.5,0.9,0.8,1.4,0.8c0.6,0.1,1.2-0.2,1.5-0.8c0.5-2,0.5-4.1,0-6C856.4,288.3,855.8,288,855.2,288z"/>
	<path d="M865.3,286.1c1.2-0.1,2.5,0.3,3.3,1.3c0.6,0.9,0.9,2.3,0.9,4.4c0,2.1-0.3,3.6-0.9,4.4c-1.9,1.7-4.7,1.7-6.6,0
		c-0.6-0.9-0.9-2.3-0.9-4.4c0-2.1,0.3-3.6,0.9-4.4C862.8,286.5,864.1,286,865.3,286.1z M865.3,288c-0.6-0.1-1.2,0.2-1.4,0.8
		c-0.5,2-0.5,4.1,0,6c0.3,0.5,0.9,0.8,1.4,0.8c0.6,0.1,1.2-0.2,1.5-0.8c0.5-2,0.5-4.1,0-6C866.5,288.3,865.9,288,865.3,288z"/>
	<path d="M875.4,286.1c1.2-0.1,2.5,0.3,3.3,1.3c0.6,0.9,0.9,2.3,0.9,4.4c0,2.1-0.3,3.6-0.9,4.4c-1.9,1.7-4.7,1.7-6.6,0
		c-0.6-0.9-0.9-2.3-0.9-4.4c0-2.1,0.3-3.6,0.9-4.4C872.9,286.5,874.1,286,875.4,286.1z M875.4,288c-0.6-0.1-1.2,0.2-1.4,0.8
		c-0.5,2-0.5,4.1,0,6c0.3,0.5,0.9,0.8,1.4,0.8c0.6,0.1,1.2-0.2,1.5-0.8c0.5-2,0.5-4.1,0-6C876.5,288.3,876,288,875.4,288z"/>
	<path d="M885.4,286.1c1.2-0.1,2.5,0.3,3.3,1.3c0.6,0.9,0.9,2.3,0.9,4.4c0,2.1-0.3,3.6-0.9,4.4c-1.9,1.7-4.7,1.7-6.6,0
		c-0.6-0.9-0.9-2.3-0.9-4.4c0-2.1,0.3-3.6,0.9-4.4C883,286.5,884.2,286,885.4,286.1z M885.4,288c-0.6-0.1-1.2,0.2-1.4,0.8
		c-0.5,2-0.5,4.1,0,6c0.3,0.5,0.9,0.8,1.4,0.8c0.6,0.1,1.2-0.2,1.5-0.8c0.5-2,0.5-4.1,0-6C886.6,288.3,886,288,885.4,288z"/>
	<path d="M895.5,286.1c1.2-0.1,2.5,0.3,3.3,1.3c0.6,0.9,0.9,2.3,0.9,4.4c0,2.1-0.3,3.6-0.9,4.4c-1.9,1.7-4.7,1.7-6.6,0
		c-0.6-0.9-0.9-2.3-0.9-4.4c0-2.1,0.3-3.6,0.9-4.4C893,286.5,894.3,286,895.5,286.1z M895.5,288c-0.6-0.1-1.2,0.2-1.4,0.8
		c-0.5,2-0.5,4.1,0,6c0.3,0.5,0.9,0.8,1.4,0.8c0.6,0.1,1.2-0.2,1.5-0.8c0.5-2,0.5-4.1,0-6C896.7,288.3,896.1,288,895.5,288
		L895.5,288z"/>
	<path d="M905.9,297.4h-2.4v-7.8c0-0.4,0-0.8,0.1-1.2l-2.6,0.7l-0.3-1.6l2.8-1.1h2.4V297.4z"/>
	<path d="M912.4,286.1c1.2-0.1,2.5,0.3,3.3,1.3c0.6,0.9,0.9,2.3,0.9,4.4c0,2.1-0.3,3.6-0.9,4.4c-1.9,1.7-4.7,1.7-6.6,0
		c-0.6-0.9-0.9-2.3-0.9-4.4c0-2.1,0.3-3.6,0.9-4.4C910,286.5,911.2,286,912.4,286.1z M912.4,288c-0.6-0.1-1.2,0.2-1.4,0.8
		c-0.5,2-0.5,4.1,0,6c0.3,0.5,0.9,0.8,1.4,0.8c0.6,0.1,1.2-0.2,1.5-0.8c0.5-2,0.5-4.1,0-6C913.6,288.3,913,288,912.4,288z"/>
	<path d="M922.5,286.1c1.2-0.1,2.5,0.3,3.3,1.3c0.6,0.9,0.9,2.3,0.9,4.4c0,2.1-0.3,3.6-0.9,4.4c-1.9,1.7-4.7,1.7-6.6,0
		c-0.6-0.9-0.9-2.3-0.9-4.4c0-2.1,0.3-3.6,0.9-4.4C920,286.5,921.2,286,922.5,286.1z M922.5,288c-0.6-0.1-1.2,0.2-1.4,0.8
		c-0.5,2-0.5,4.1,0,6c0.3,0.5,0.9,0.8,1.4,0.8c0.6,0.1,1.2-0.2,1.5-0.8c0.5-2,0.5-4.1,0-6C923.7,288.3,923.1,288,922.5,288z"/>
</g>
<g>
	<path d="M856.8,320.1c1.2-0.1,2.5,0.3,3.3,1.3c0.6,0.9,0.9,2.3,0.9,4.4c0,2.1-0.3,3.6-0.9,4.4c-1.9,1.7-4.7,1.7-6.6,0
		c-0.6-0.9-0.9-2.3-0.9-4.4c0-2.1,0.3-3.6,0.9-4.4C854.4,320.5,855.6,320,856.8,320.1z M856.8,322c-0.6-0.1-1.2,0.2-1.4,0.8
		c-0.5,2-0.5,4.1,0,6c0.3,0.5,0.9,0.8,1.4,0.8c0.6,0.1,1.2-0.2,1.5-0.8c0.5-2,0.5-4.1,0-6C858,322.3,857.4,322,856.8,322z"/>
	<path d="M866.9,320.1c1.2-0.1,2.5,0.3,3.3,1.3c0.6,0.9,0.9,2.3,0.9,4.4c0,2.1-0.3,3.6-0.9,4.4c-1.9,1.7-4.7,1.7-6.6,0
		c-0.6-0.9-0.9-2.3-0.9-4.4c0-2.1,0.3-3.6,0.9-4.4C864.4,320.5,865.7,320,866.9,320.1z M866.9,322c-0.6-0.1-1.2,0.2-1.4,0.8
		c-0.5,2-0.5,4.1,0,6c0.3,0.5,0.9,0.8,1.4,0.8c0.6,0.1,1.2-0.2,1.5-0.8c0.5-2,0.5-4.1,0-6C868.1,322.3,867.5,322,866.9,322z"/>
	<path d="M877,320.1c1.2-0.1,2.5,0.3,3.3,1.3c0.6,0.9,0.9,2.3,0.9,4.4c0,2.1-0.3,3.6-0.9,4.4c-1.9,1.7-4.7,1.7-6.6,0
		c-0.6-0.9-0.9-2.3-0.9-4.4c0-2.1,0.3-3.6,0.9-4.4C874.5,320.5,875.7,320,877,320.1z M877,322c-0.6-0.1-1.2,0.2-1.4,0.8
		c-0.5,2-0.5,4.1,0,6c0.3,0.5,0.9,0.8,1.4,0.8c0.6,0.1,1.2-0.2,1.5-0.8c0.5-2,0.5-4.1,0-6C878.1,322.3,877.6,322,877,322z"/>
	<path d="M887,320.1c1.2-0.1,2.5,0.3,3.3,1.3c0.6,0.9,0.9,2.3,0.9,4.4c0,2.1-0.3,3.6-0.9,4.4c-1.9,1.7-4.7,1.7-6.6,0
		c-0.6-0.9-0.9-2.3-0.9-4.4c0-2.1,0.3-3.6,0.9-4.4C884.6,320.5,885.8,320,887,320.1z M887,322c-0.6-0.1-1.2,0.2-1.4,0.8
		c-0.5,2-0.5,4.1,0,6c0.3,0.5,0.9,0.8,1.4,0.8c0.6,0.1,1.2-0.2,1.5-0.8c0.5-2,0.5-4.1,0-6C888.2,322.3,887.6,322,887,322z"/>
	<path d="M897.1,320.1c1.2-0.1,2.5,0.3,3.3,1.3c0.6,0.9,0.9,2.3,0.9,4.4c0,2.1-0.3,3.6-0.9,4.4c-1.9,1.7-4.7,1.7-6.6,0
		c-0.6-0.9-0.9-2.3-0.9-4.4c0-2.1,0.3-3.6,0.9-4.4C894.6,320.5,895.9,320,897.1,320.1z M897.1,322c-0.6-0.1-1.2,0.2-1.4,0.8
		c-0.5,2-0.5,4.1,0,6c0.3,0.5,0.9,0.8,1.4,0.8c0.6,0.1,1.2-0.2,1.5-0.8c0.5-2,0.5-4.1,0-6C898.3,322.3,897.7,322,897.1,322
		L897.1,322z"/>
	<path d="M907.5,331.4h-2.4v-7.8c0-0.4,0-0.8,0.1-1.2l-2.6,0.7l-0.3-1.6l2.8-1.1h2.4L907.5,331.4z"/>
	<path d="M914,320.1c1.2-0.1,2.5,0.3,3.3,1.3c0.6,0.9,0.9,2.3,0.9,4.4c0,2.1-0.3,3.6-0.9,4.4c-1.9,1.7-4.7,1.7-6.6,0
		c-0.6-0.9-0.9-2.3-0.9-4.4c0-2.1,0.3-3.6,0.9-4.4C911.6,320.5,912.8,320,914,320.1z M914,322c-0.6-0.1-1.2,0.2-1.4,0.8
		c-0.5,2-0.5,4.1,0,6c0.3,0.5,0.9,0.8,1.4,0.8c0.6,0.1,1.2-0.2,1.5-0.8c0.5-2,0.5-4.1,0-6C915.2,322.3,914.6,322,914,322L914,322z"
		/>
	<path d="M924.4,331.4H922v-7.8c0-0.4,0-0.8,0.1-1.2l-2.6,0.7l-0.3-1.6l2.8-1.1h2.4V331.4z"/>
</g>
<g>
	<path d="M856.8,354.1c1.2-0.1,2.5,0.3,3.3,1.3c0.6,0.9,0.9,2.3,0.9,4.4c0,2.1-0.3,3.6-0.9,4.4c-1.9,1.7-4.7,1.7-6.6,0
		c-0.6-0.9-0.9-2.3-0.9-4.4c0-2.1,0.3-3.6,0.9-4.4C854.4,354.5,855.6,354,856.8,354.1z M856.8,356c-0.6-0.1-1.2,0.2-1.4,0.8
		c-0.5,2-0.5,4.1,0,6c0.3,0.5,0.9,0.8,1.4,0.8c0.6,0.1,1.2-0.2,1.5-0.8c0.5-2,0.5-4.1,0-6C858,356.3,857.4,356,856.8,356z"/>
	<path d="M866.9,354.1c1.2-0.1,2.5,0.3,3.3,1.3c0.6,0.9,0.9,2.3,0.9,4.4c0,2.1-0.3,3.6-0.9,4.4c-1.9,1.7-4.7,1.7-6.6,0
		c-0.6-0.9-0.9-2.3-0.9-4.4c0-2.1,0.3-3.6,0.9-4.4C864.4,354.5,865.7,354,866.9,354.1z M866.9,356c-0.6-0.1-1.2,0.2-1.4,0.8
		c-0.5,2-0.5,4.1,0,6c0.3,0.5,0.9,0.8,1.4,0.8c0.6,0.1,1.2-0.2,1.5-0.8c0.5-2,0.5-4.1,0-6C868.1,356.3,867.5,356,866.9,356z"/>
	<path d="M877,354.1c1.2-0.1,2.5,0.3,3.3,1.3c0.6,0.9,0.9,2.3,0.9,4.4c0,2.1-0.3,3.6-0.9,4.4c-1.9,1.7-4.7,1.7-6.6,0
		c-0.6-0.9-0.9-2.3-0.9-4.4c0-2.1,0.3-3.6,0.9-4.4C874.5,354.5,875.7,354,877,354.1z M877,356c-0.6-0.1-1.2,0.2-1.4,0.8
		c-0.5,2-0.5,4.1,0,6c0.3,0.5,0.9,0.8,1.4,0.8c0.6,0.1,1.2-0.2,1.5-0.8c0.5-2,0.5-4.1,0-6C878.1,356.3,877.6,356,877,356z"/>
	<path d="M887,354.1c1.2-0.1,2.5,0.3,3.3,1.3c0.6,0.9,0.9,2.3,0.9,4.4c0,2.1-0.3,3.6-0.9,4.4c-1.9,1.7-4.7,1.7-6.6,0
		c-0.6-0.9-0.9-2.3-0.9-4.4c0-2.1,0.3-3.6,0.9-4.4C884.6,354.5,885.8,354,887,354.1z M887,356c-0.6-0.1-1.2,0.2-1.4,0.8
		c-0.5,2-0.5,4.1,0,6c0.3,0.5,0.9,0.8,1.4,0.8c0.6,0.1,1.2-0.2,1.5-0.8c0.5-2,0.5-4.1,0-6C888.2,356.3,887.6,356,887,356z"/>
	<path d="M897.1,354.1c1.2-0.1,2.5,0.3,3.3,1.3c0.6,0.9,0.9,2.3,0.9,4.4c0,2.1-0.3,3.6-0.9,4.4c-1.9,1.7-4.7,1.7-6.6,0
		c-0.6-0.9-0.9-2.3-0.9-4.4c0-2.1,0.3-3.6,0.9-4.4C894.6,354.5,895.9,354,897.1,354.1z M897.1,356c-0.6-0.1-1.2,0.2-1.4,0.8
		c-0.5,2-0.5,4.1,0,6c0.3,0.5,0.9,0.8,1.4,0.8c0.6,0.1,1.2-0.2,1.5-0.8c0.5-2,0.5-4.1,0-6C898.3,356.3,897.7,356,897.1,356
		L897.1,356z"/>
	<path d="M907.5,365.4h-2.4v-7.8c0-0.4,0-0.8,0.1-1.2l-2.6,0.7l-0.3-1.6l2.8-1.1h2.4L907.5,365.4z"/>
	<path d="M914.4,365.4h-2.4v-7.8c0-0.4,0-0.8,0.1-1.2l-2.6,0.7l-0.3-1.6l2.8-1.1h2.4V365.4z"/>
	<path d="M920.9,354.1c1.2-0.1,2.5,0.3,3.3,1.3c0.6,0.9,0.9,2.3,0.9,4.4c0,2.1-0.3,3.6-0.9,4.4c-1.9,1.7-4.7,1.7-6.6,0
		c-0.6-0.9-0.9-2.3-0.9-4.4c0-2.1,0.3-3.6,0.9-4.4C918.4,354.5,919.6,354,920.9,354.1z M920.9,356c-0.6-0.1-1.2,0.2-1.4,0.8
		c-0.5,2-0.5,4.1,0,6c0.3,0.5,0.9,0.8,1.4,0.8c0.6,0.1,1.2-0.2,1.5-0.8c0.5-2,0.5-4.1,0-6C922.1,356.3,921.5,356,920.9,356z"/>
</g>
<g>
	<path d="M858.4,395.1c1.2-0.1,2.5,0.3,3.3,1.3c0.6,0.9,0.9,2.3,0.9,4.4c0,2.1-0.3,3.6-0.9,4.4c-1.9,1.7-4.7,1.7-6.6,0
		c-0.6-0.9-0.9-2.3-0.9-4.4c0-2.1,0.3-3.6,0.9-4.4C856,395.5,857.2,395,858.4,395.1z M858.4,397c-0.6-0.1-1.2,0.2-1.4,0.8
		c-0.5,2-0.5,4.1,0,6c0.3,0.5,0.9,0.8,1.4,0.8c0.6,0.1,1.2-0.2,1.5-0.8c0.5-2,0.5-4.1,0-6C859.6,397.3,859,397,858.4,397z"/>
	<path d="M868.5,395.1c1.2-0.1,2.5,0.3,3.3,1.3c0.6,0.9,0.9,2.3,0.9,4.4c0,2.1-0.3,3.6-0.9,4.4c-1.9,1.7-4.7,1.7-6.6,0
		c-0.6-0.9-0.9-2.3-0.9-4.4c0-2.1,0.3-3.6,0.9-4.4C866,395.5,867.3,395,868.5,395.1z M868.5,397c-0.6-0.1-1.2,0.2-1.4,0.8
		c-0.5,2-0.5,4.1,0,6c0.3,0.5,0.9,0.8,1.4,0.8c0.6,0.1,1.2-0.2,1.5-0.8c0.5-2,0.5-4.1,0-6C869.7,397.3,869.1,397,868.5,397z"/>
	<path d="M878.6,395.1c1.2-0.1,2.5,0.3,3.3,1.3c0.6,0.9,0.9,2.3,0.9,4.4c0,2.1-0.3,3.6-0.9,4.4c-1.9,1.7-4.7,1.7-6.6,0
		c-0.6-0.9-0.9-2.3-0.9-4.4c0-2.1,0.3-3.6,0.9-4.4C876.1,395.5,877.3,395,878.6,395.1z M878.6,397c-0.6-0.1-1.2,0.2-1.4,0.8
		c-0.5,2-0.5,4.1,0,6c0.3,0.5,0.9,0.8,1.4,0.8c0.6,0.1,1.2-0.2,1.5-0.8c0.5-2,0.5-4.1,0-6C879.7,397.3,879.2,397,878.6,397z"/>
	<path d="M888.6,395.1c1.2-0.1,2.5,0.3,3.3,1.3c0.6,0.9,0.9,2.3,0.9,4.4c0,2.1-0.3,3.6-0.9,4.4c-1.9,1.7-4.7,1.7-6.6,0
		c-0.6-0.9-0.9-2.3-0.9-4.4c0-2.1,0.3-3.6,0.9-4.4C886.2,395.5,887.4,395,888.6,395.1z M888.6,397c-0.6-0.1-1.2,0.2-1.4,0.8
		c-0.5,2-0.5,4.1,0,6c0.3,0.5,0.9,0.8,1.4,0.8c0.6,0.1,1.2-0.2,1.5-0.8c0.5-2,0.5-4.1,0-6C889.8,397.3,889.2,397,888.6,397z"/>
	<path d="M898.7,395.1c1.2-0.1,2.5,0.3,3.3,1.3c0.6,0.9,0.9,2.3,0.9,4.4c0,2.1-0.3,3.6-0.9,4.4c-1.9,1.7-4.7,1.7-6.6,0
		c-0.6-0.9-0.9-2.3-0.9-4.4c0-2.1,0.3-3.6,0.9-4.4C896.2,395.5,897.5,395,898.7,395.1z M898.7,397c-0.6-0.1-1.2,0.2-1.4,0.8
		c-0.5,2-0.5,4.1,0,6c0.3,0.5,0.9,0.8,1.4,0.8c0.6,0.1,1.2-0.2,1.5-0.8c0.5-2,0.5-4.1,0-6C899.9,397.3,899.3,397,898.7,397
		L898.7,397z"/>
	<path d="M909.1,406.4h-2.4v-7.8c0-0.4,0-0.8,0.1-1.2l-2.6,0.7l-0.3-1.6l2.8-1.1h2.4L909.1,406.4z"/>
	<path d="M916,406.4h-2.4v-7.8c0-0.4,0-0.8,0.1-1.2l-2.6,0.7l-0.3-1.6l2.8-1.1h2.4V406.4z"/>
	<path d="M922.8,406.4h-2.4v-7.8c0-0.4,0-0.8,0.1-1.2l-2.6,0.7l-0.3-1.6l2.8-1.1h2.4V406.4z"/>
</g>
<g>
	<path d="M855.2,435.1c1.2-0.1,2.5,0.3,3.3,1.3c0.6,0.9,0.9,2.3,0.9,4.4c0,2.1-0.3,3.6-0.9,4.4c-1.9,1.7-4.7,1.7-6.6,0
		c-0.6-0.9-0.9-2.3-0.9-4.4c0-2.1,0.3-3.6,0.9-4.4C852.8,435.5,854,435,855.2,435.1z M855.2,437.1c-0.6-0.1-1.2,0.2-1.4,0.8
		c-0.5,2-0.5,4.1,0,6c0.3,0.5,0.9,0.8,1.4,0.8c0.6,0.1,1.2-0.2,1.5-0.8c0.5-2,0.5-4.1,0-6C856.4,437.3,855.8,437,855.2,437.1
		L855.2,437.1z"/>
	<path d="M865.3,435.1c1.2-0.1,2.5,0.3,3.3,1.3c0.6,0.9,0.9,2.3,0.9,4.4c0,2.1-0.3,3.6-0.9,4.4c-1.9,1.7-4.7,1.7-6.6,0
		c-0.6-0.9-0.9-2.3-0.9-4.4c0-2.1,0.3-3.6,0.9-4.4C862.8,435.5,864.1,435,865.3,435.1z M865.3,437.1c-0.6-0.1-1.2,0.2-1.4,0.8
		c-0.5,2-0.5,4.1,0,6c0.3,0.5,0.9,0.8,1.4,0.8c0.6,0.1,1.2-0.2,1.5-0.8c0.5-2,0.5-4.1,0-6C866.5,437.3,865.9,437,865.3,437.1
		L865.3,437.1z"/>
	<path d="M875.4,435.1c1.2-0.1,2.5,0.3,3.3,1.3c0.6,0.9,0.9,2.3,0.9,4.4c0,2.1-0.3,3.6-0.9,4.4c-1.9,1.7-4.7,1.7-6.6,0
		c-0.6-0.9-0.9-2.3-0.9-4.4c0-2.1,0.3-3.6,0.9-4.4C872.9,435.5,874.1,435,875.4,435.1z M875.4,437.1c-0.6-0.1-1.2,0.2-1.4,0.8
		c-0.5,2-0.5,4.1,0,6c0.3,0.5,0.9,0.8,1.4,0.8c0.6,0.1,1.2-0.2,1.5-0.8c0.5-2,0.5-4.1,0-6C876.5,437.3,876,437,875.4,437.1
		L875.4,437.1z"/>
	<path d="M885.4,435.1c1.2-0.1,2.5,0.3,3.3,1.3c0.6,0.9,0.9,2.3,0.9,4.4c0,2.1-0.3,3.6-0.9,4.4c-1.9,1.7-4.7,1.7-6.6,0
		c-0.6-0.9-0.9-2.3-0.9-4.4c0-2.1,0.3-3.6,0.9-4.4C883,435.5,884.2,435,885.4,435.1z M885.4,437.1c-0.6-0.1-1.2,0.2-1.4,0.8
		c-0.5,2-0.5,4.1,0,6c0.3,0.5,0.9,0.8,1.4,0.8c0.6,0.1,1.2-0.2,1.5-0.8c0.5-2,0.5-4.1,0-6C886.6,437.3,886,437,885.4,437.1
		L885.4,437.1z"/>
	<path d="M895.8,446.4h-2.4v-7.8c0-0.4,0-0.8,0.1-1.2l-2.6,0.7l-0.3-1.6l2.8-1.1h2.4L895.8,446.4z"/>
	<path d="M902.4,435.1c1.2-0.1,2.5,0.3,3.3,1.3c0.6,0.9,0.9,2.3,0.9,4.4c0,2.1-0.3,3.6-0.9,4.4c-1.9,1.7-4.7,1.7-6.6,0
		c-0.6-0.9-0.9-2.3-0.9-4.4c0-2.1,0.3-3.6,0.9-4.4C899.9,435.5,901.1,435,902.4,435.1z M902.3,437.1c-0.6-0.1-1.2,0.2-1.4,0.8
		c-0.5,2-0.5,4.1,0,6c0.3,0.5,0.9,0.8,1.4,0.8c0.6,0.1,1.2-0.2,1.5-0.8c0.5-2,0.5-4.1,0-6C903.5,437.3,903,437,902.3,437.1
		L902.3,437.1z"/>
	<path d="M912.4,435.1c1.2-0.1,2.5,0.3,3.3,1.3c0.6,0.9,0.9,2.3,0.9,4.4c0,2.1-0.3,3.6-0.9,4.4c-1.9,1.7-4.7,1.7-6.6,0
		c-0.6-0.9-0.9-2.3-0.9-4.4c0-2.1,0.3-3.6,0.9-4.4C910,435.5,911.2,435,912.4,435.1z M912.4,437.1c-0.6-0.1-1.2,0.2-1.4,0.8
		c-0.5,2-0.5,4.1,0,6c0.3,0.5,0.9,0.8,1.4,0.8c0.6,0.1,1.2-0.2,1.5-0.8c0.5-2,0.5-4.1,0-6C913.6,437.3,913,437,912.4,437.1
		L912.4,437.1z"/>
	<path d="M922.5,435.1c1.2-0.1,2.5,0.3,3.3,1.3c0.6,0.9,0.9,2.3,0.9,4.4c0,2.1-0.3,3.6-0.9,4.4c-1.9,1.7-4.7,1.7-6.6,0
		c-0.6-0.9-0.9-2.3-0.9-4.4c0-2.1,0.3-3.6,0.9-4.4C920,435.5,921.2,435,922.5,435.1z M922.5,437.1c-0.6-0.1-1.2,0.2-1.4,0.8
		c-0.5,2-0.5,4.1,0,6c0.3,0.5,0.9,0.8,1.4,0.8c0.6,0.1,1.2-0.2,1.5-0.8c0.5-2,0.5-4.1,0-6C923.7,437.3,923.1,437,922.5,437.1
		L922.5,437.1z"/>
</g>
<rect x="934.5" y="85.1" class="st10" width="1.6" height="378.6"/>
<polyline class="st9" points="312.2,597.2 312.2,495.8 199.1,495.8 199.1,444.4 "/>
<polyline class="st9" points="230.9,439.4 230.9,467.7 352.2,467.7 352.2,553.6 "/>
<rect x="205.1" y="412.3" class="st10" width="55.5" height="27.1"/>
<rect x="260.5" y="412.3" class="st13" width="131.5" height="27.1"/>
<g>
	<path d="M223.8,421.4h2.2c0.4,0,0.8,0.3,0.9,0.7c0,0.1,0,0.1,0,0.2l0.4,9.4h-2.1l-0.3-8.5h-0.3l-1.6,6.4c-0.1,0.5-0.5,0.8-0.9,0.7
		h-1.5c-0.5,0-0.9-0.3-0.9-0.7l-1.6-6.4h-0.3l-0.3,8.5h-2.1l0.4-9.4c0-0.4,0.3-0.8,0.7-0.9c0.1,0,0.1,0,0.2,0h2.2
		c0.4,0,0.8,0.3,0.9,0.7l1.3,5.1c0.1,0.3,0.2,0.8,0.3,1.4h0.2c0,0,0-0.3,0.1-0.6s0.1-0.6,0.2-0.8l1.2-5.1
		C222.9,421.6,223.3,421.3,223.8,421.4z"/>
	<path d="M234.7,429h-3.5l-0.7,2.7h-2.3l3-9.7c0-0.2,0.1-0.3,0.3-0.4c0.1-0.1,0.3-0.2,0.5-0.2h2.1c0.4,0,0.7,0.2,0.8,0.6l3,9.7h-2.3
		L234.7,429z M234.2,427.2l-0.9-3.1c-0.1-0.5-0.2-0.8-0.2-1h-0.4c0,0.1-0.1,0.3-0.1,0.5s-0.1,0.4-0.1,0.5l-0.9,3.1L234.2,427.2z"/>
	<path d="M246.9,431.6h-2.4l-0.8-3.1c-0.1-0.3-0.2-0.5-0.4-0.7c-0.2-0.1-0.5-0.2-0.7-0.2l-1.6,0v4h-2.2v-10.3
		c0.9-0.1,2.2-0.1,3.9-0.1c1-0.1,2,0.1,2.9,0.7c0.6,0.6,1,1.5,0.9,2.4c0,0.6-0.1,1.2-0.5,1.8c-0.4,0.5-0.9,0.7-1.5,0.8v0.1
		c0.8,0.2,1.3,0.8,1.5,1.6L246.9,431.6z M241,425.9h1.6c0.4,0,0.9-0.1,1.2-0.3c0.4-0.7,0.4-1.6,0-2.3c-0.4-0.2-0.8-0.3-1.2-0.3
		l-1.6,0V425.9z"/>
</g>
<line class="st9" x1="628.2" y1="475.9" x2="628.2" y2="513.4"/>
<line class="st9" x1="852.2" y1="491.1" x2="852.2" y2="597.2"/>
<line class="st9" x1="882.2" y1="491.1" x2="882.2" y2="567.9"/>
<line class="st9" x1="978.2" y1="475.9" x2="978.2" y2="513.4"/>
<polygon points="199.3,454.8 208.2,454.7 203.7,447.1 199.2,439.4 194.8,447.2 190.4,454.9 "/>
</svg>
